<?xml version="1.0" encoding="UTF-8"?>
<svg id="Layer_2" data-name="Layer 2" xmlns="http://www.w3.org/2000/svg" viewBox="0 0 129.38 58.8">
  <defs>
    <style>
      .cls-1, .cls-2, .cls-3 {
        stroke-width: 0px;
      }

      .cls-2 {
        fill: #c5351c;
      }

      .cls-3 {
        fill: #807f83;
      }
    </style>
  </defs>
  <g id="Layer_1-2" data-name="Layer 1">
    <g>
      <path class="cls-3" d="M42.62,15.24c0-2.07,2.13-2.64,3.93-2.64,2.94,0,5.48,1.59,6.49,2.19.13.08.19.06.19-.07v-3.2c0-.1,0-.22-.15-.25-1.05-.22-3.41-.95-6.13-1.02-6.81-.18-9.38,3.21-9.38,6.67,0,6.62,12.29,6.91,12.29,11.61,0,1.68-1.29,3.22-4.83,3.22-1.62,0-3.21-.35-4.66-1.04-1.55-.75-2.71-1.9-4.18-2.72-1.41-.79-3.04-1.24-4.66-1.24-3.65,0-5.58,1.99-6.52,3.47-.06.09-.1.09-.1,0v-14.8c0-.06-.05-.11-.12-.09l-9.11,2.35c-.07.02-.13.08-.13.15v.9c0,.06.06.12.13.12l.44.02c2.56.19,3.44.68,3.44,3.55v23.56c0,.18.03.17.21.12h0s4.27-1.11,4.27-1.11c.24.21,1.9,3.58,7.33,3.58,6.77,0,9.38-5.12,9.38-10.69,0-1.56-.15-2.89-.53-4.37,1.15.41,2.99.77,4.79.81,5.44.12,9.9-2.38,9.9-7.08,0-7.34-12.29-7.44-12.29-12M29.67,46.15c-4.33,0-4.74-5.57-4.74-7.93v-1.82c0-2.5.57-7.13,5.11-7.13s5,5.12,5,8.24c0,3.43-.42,8.64-5.37,8.64"/>
      <path class="cls-2" d="M4.03,11.64c0-2.33,1.89-4.25,4.25-4.25s4.31,1.85,4.31,4.25-2.02,4.31-4.38,4.31-4.18-1.92-4.18-4.31"/>
      <path class="cls-2" d="M12.45,18.5L.13,21.68c-.07.02-.13.09-.13.16v.97c0,.07.06.14.13.15l.27.04c3.56.29,5.99,1.02,5.99,5.45v19.97c0,.11.01.15.07.15.03,0,.08-.01.14-.03l5.8-1.52h0c.17-.04.17-.16.17-.31v-28.11c0-.07-.06-.11-.13-.09"/>
    </g>
    <g>
      <path class="cls-1" d="M106.67,8.13c-5.05,1.17-10.09,2.33-15.26,2.75,0-.02-.02-.05-.03-.07.56-.3,1.11-.62,1.69-.88.61-.28,1.23-.53,1.86-.73.77-.25,1.56-.46,2.36-.63.78-.17,1.58-.29,2.37-.4.6-.08,1.21-.12,1.81-.15,1.6-.08,3.19-.06,4.78.08.14.01.27.02.41.02Z"/>
      <g>
        <path class="cls-1" d="M119.86,13.73c-.49.05-.92.08-1.35.13-.57.06-1.14.13-1.71.19-.48.05-.96.1-1.44.16-.58.07-1.17.16-1.75.24-.51.07-1.02.13-1.53.21-.82.12-1.64.25-2.46.38-.75.12-1.51.24-2.26.37-.56.1-1.12.2-1.68.31-.77.14-1.54.29-2.31.44-.9.17-1.79.36-2.68.53-1.19.24-2.39.48-3.58.72-2.02.41-4.05.83-6.07,1.22-2.17.42-4.34.83-6.51,1.23-1.02.19-2.04.36-3.06.54-.28.05-.57.08-.88.12.39-.58.76-1.14,1.14-1.69.25-.36.52-.71.82-1.03.41-.45.93-.71,1.53-.82.75-.14,1.5-.31,2.25-.48,1.83-.43,3.67-.86,5.5-1.3,1.3-.31,2.61-.62,3.91-.93,2.06-.5,4.11-.99,6.16-1.51,2.05-.52,4.1-1.05,6.14-1.6,1.6-.43,3.19-.9,4.79-1.33.14-.04.33.04.49.11,1.46.59,2.83,1.34,4.15,2.2.74.48,1.48.96,2.22,1.44.05.04.1.08.2.16Z"/>
        <path class="cls-1" d="M93.39,50.65c-.5.04-.97.07-1.43.11-.24.02-.49.07-.73.08-.41.03-.83.04-1.24.05-.75.02-1.49.05-2.24.05-1.26-.01-2.5-.15-3.7-.57-.45-.16-.91-.33-1.31-.59-.29-.18-.5-.5-.71-.78-.37-.48-.75-.97-1.08-1.49-.49-.78-.78-1.61-.46-2.54.16-.47.46-.86.81-1.21,1.16-1.17,2.49-2.11,3.92-2.91.89-.5,1.8-.97,2.72-1.4,1.01-.47,2.05-.88,3.08-1.32,2.61-1.14,5.31-2.02,8.01-2.9,2.89-.94,5.81-1.75,8.76-2.46,2.36-.57,4.74-1.05,7.14-1.43,1.08-.17,2.16-.36,3.25-.49,1.32-.15,2.65-.26,3.97-.36,1.32-.1,2.64-.11,3.96.06,1.07.13,2.08.42,2.96,1.08.24.18.18.41.19.6.06,1.06.12,2.12.1,3.18-.02,1.1-.09,2.21-.49,3.26-.1.27-.25.53-.39.81-.34-.28-.64-.54-.95-.78-1.08-.81-2.31-1.29-3.63-1.56-1.27-.26-2.56-.35-3.86-.34-1.37,0-2.75.04-4.12.1-.84.04-1.67.15-2.51.24-.78.08-1.57.15-2.35.26-1.03.15-2.07.31-3.1.49-1.26.22-2.52.44-3.77.71-1.27.28-2.53.6-3.79.93-1.26.33-2.51.68-3.75,1.07-1.32.41-2.63.83-3.92,1.31-1.19.44-2.36.94-3.53,1.43-1.38.58-2.73,1.23-3.99,2.05-1.04.68-1.98,1.46-2.69,2.56.75.15,1.49.32,2.23.44.71.12,1.42.21,2.14.3.21.03.43.05.64.05,1.37.01,2.74.07,4.11,0,1.35-.07,2.7-.25,4.04-.41.59-.07,1.18-.2,1.77-.31.1-.02.19-.07.28-.11,1.92-.92,3.91-1.69,5.93-2.35,2.83-.92,5.73-1.6,8.67-2.09,1.71-.28,3.43-.54,5.15-.78,1.06-.15,2.13-.24,3.2-.36.54-.06,1.01-.31,1.47-.57.75-.42,1.48-.87,2.24-1.27.47-.24.98-.39,1.49,0-1.46.8-2.94,1.49-4.55,2.1.3.09.53.16.76.22.84.23,1.69.41,2.51.7.92.32,1.46,1.01,1.64,1.97.02.1.01.22-.03.31-1.05,2.52-2.64,4.64-4.78,6.34-1.36,1.09-2.86,1.95-4.43,2.68-1.29.6-2.62,1.09-3.97,1.52-2.47.79-4.98,1.39-7.51,1.95-.77.17-1.56.21-2.35.28-.75.07-1.49.12-2.24.15-.82.03-1.64.08-2.46.04-1.71-.07-3.4-.33-5.01-.94-1.03-.39-2-.92-2.74-1.74-.25-.27-.33-.74-.39-1.13-.14-.97.27-1.79.92-2.46.56-.58,1.2-1.08,1.81-1.62.09-.08.19-.15.31-.25ZM99.53,58.11c1.69-.02,3.13-.1,4.56-.31.82-.12,1.64-.2,2.45-.36,1.14-.22,2.29-.43,3.41-.73,1.38-.37,2.75-.8,4.1-1.25,1.01-.34,2-.75,2.99-1.14.53-.21,1.03-.48,1.57-.64.73-.21,1.33-.59,1.82-1.14.44-.5.86-1.02,1.27-1.54.05-.06.06-.19.03-.27-.38-.97-1.08-1.63-2.03-2.03-1.34-.55-2.76-.7-4.19-.75-1.55-.06-3.09.04-4.63.24-.82.11-1.64.21-2.46.35-2.01.33-3.98.84-5.9,1.51-2.28.8-4.49,1.73-6.48,3.12-1.1.77-2.03,1.7-2.58,2.95-.05.11-.11.26-.09.37.11.48.39.83.83,1.07.59.32,1.25.4,1.9.44,1.22.06,2.45.09,3.42.12Z"/>
        <path class="cls-1" d="M77.17,35.24c-.03-.52-.05-.95-.07-1.38-.02-.51-.05-1.03-.05-1.54,0-1.04.43-1.82,1.4-2.29.66-.32,1.29-.72,1.96-1.02,1-.45,2.01-.89,3.05-1.25,2.27-.79,4.55-1.57,6.86-2.27,2.72-.82,5.46-1.58,8.2-2.31,2.71-.72,5.42-1.4,8.15-2.02,2.93-.66,5.89-1.25,8.84-1.84,1.45-.29,2.92-.52,4.38-.75.64-.1,1.28-.17,1.93-.2.74-.03,1.47,0,2.21,0,.17,0,.29.06.39.22.62,1.01,1.3,1.97,1.86,3.01.64,1.19,1.17,2.44,1.74,3.67.03.06.03.12.04.13-.72-.21-1.43-.47-2.16-.63-1.45-.32-2.85-.13-4.24.4-2.45.93-4.91,1.84-7.4,2.69-4.23,1.44-8.54,2.62-12.88,3.69-3.71.91-7.45,1.7-11.2,2.42-1.25.24-2.51.45-3.77.66-.99.16-1.99.29-2.98.46-1.24.2-2.48.36-3.74.34-.83-.02-1.67-.12-2.5-.18ZM122.6,24.29c-.58.04-1.17.09-1.75.13-.42.03-.84.06-1.26.1-.64.06-1.27.13-1.91.19-.38.04-.77.07-1.15.11-.54.06-1.07.13-1.61.19-.5.06-1,.1-1.5.16-.76.09-1.51.19-2.27.29-.54.07-1.08.13-1.61.2-.51.07-1.01.17-1.52.24-.6.09-1.2.17-1.8.26-.85.14-1.69.29-2.53.44-.8.14-1.61.26-2.41.41-.87.17-1.74.35-2.61.54-1.57.34-3.14.65-4.7,1.02-1.75.42-3.5.85-5.23,1.35-2.21.64-4.4,1.34-6.6,2.02-.32.1-.64.21-.96.32,14.13-1.04,27.87-4.03,41.43-7.99Z"/>
        <path class="cls-1" d="M74.65,24.96c.05-1.58,1.1-2.46,2.54-2.51,1.31-.04,2.49,1.08,2.53,2.45.05,1.58-1.43,2.73-2.66,2.61-1.22-.12-2.43-.98-2.42-2.55Z"/>
        <path class="cls-1" d="M112.65,5.01c-1.33.05-2.5-1.12-2.45-2.5.05-1.38.86-2.52,2.51-2.5,1.4.01,2.54,1.15,2.55,2.53,0,1.21-1.08,2.53-2.61,2.47Z"/>
        <path class="cls-1" d="M85.61,8.86c1.04,0,1.78.68,1.78,1.65,0,.55-.28.97-.72,1.3-.51.38-1.07.46-1.64.25-.68-.24-1.04-.87-.98-1.59.04-.52.23-1.01.61-1.36.18-.16.49-.18.75-.25.06-.02.13,0,.2,0Z"/>
        <path class="cls-1" d="M77.75,40.03c0,.36-.17.72-.45,1.02-.07.08-.2.13-.3.14-.56.05-1.03-.17-1.37-.61-.5-.63-.23-1.48.56-1.72.84-.27,1.58.24,1.56,1.18Z"/>
        <path class="cls-1" d="M91.41,10.88l-.03-.08h0c.17-.09.35-.19.51-.28.38-.21.78-.42,1.18-.6.68-.31,1.29-.54,1.86-.73.78-.25,1.58-.46,2.36-.63.83-.18,1.67-.3,2.37-.4.66-.09,1.31-.13,1.81-.15,1.61-.08,3.22-.05,4.78.08.09,0,.19.01.28.02.04,0,.09,0,.13,0h.05s-.05.01-.05.01c-4.95,1.15-10.07,2.33-15.26,2.75h0ZM91.4,10.81l.02.06c5.17-.42,10.27-1.59,15.2-2.74-.03,0-.05,0-.08,0-.09,0-.19,0-.28-.02-1.56-.14-3.17-.17-4.78-.08-.5.03-1.15.07-1.81.15-.71.1-1.54.22-2.37.4-.78.17-1.57.38-2.35.63-.58.18-1.19.42-1.86.73-.4.18-.8.4-1.18.6-.17.09-.34.18-.51.27Z"/>
      </g>
    </g>
  </g>
</svg>