<?xml version="1.0" encoding="UTF-8"?>
<svg id="Layer_1" data-name="Layer 1" xmlns="http://www.w3.org/2000/svg" viewBox="0 0 1030.2 1080.25">
  <defs>
    <style>
      .cls-1 {
        opacity: .5;
      }

      .cls-2, .cls-3 {
        stroke-width: 0px;
      }

      .cls-3 {
        fill: #fff;
      }
    </style>
  </defs>
  <g class="cls-1">
    <path class="cls-3" d="M.12,1080.12V.12h1029.95v1080H.12ZM344.89,906.53c-2.18,1.71-3.92,2.93-5.5,4.33-10.64,9.39-21.82,18.26-31.71,28.39-11.51,11.78-18.67,26.1-16.22,43.19.99,6.88,2.49,15.03,6.82,19.82,13.06,14.4,29.99,23.74,48.11,30.58,28.33,10.7,57.93,15.25,88,16.56,14.38.63,28.84-.18,43.25-.78,13.13-.55,26.25-1.43,39.33-2.65,13.8-1.29,27.8-1.99,41.27-4.97,44.32-9.78,88.46-20.39,131.76-34.19,23.7-7.56,47.04-16.13,69.61-26.61,27.66-12.83,53.91-27.98,77.84-47.09,37.52-29.96,65.44-67.04,83.83-111.36.67-1.61.79-3.69.46-5.42-3.19-16.86-12.73-29.04-28.8-34.65-14.38-5.02-29.39-8.23-44.12-12.27-4.04-1.11-8.05-2.31-13.32-3.83,28.27-10.87,54.36-22.96,79.94-36.93-9.11-6.85-18.05-4.32-26.22-.08-13.34,6.91-26.16,14.83-39.24,22.25-8.1,4.59-16.25,9.01-25.79,10.01-18.72,1.96-37.48,3.65-56.12,6.25-30.19,4.21-60.35,8.72-90.43,13.71-51.57,8.56-102.37,20.48-152.13,36.61-35.57,11.53-70.33,25.13-104.11,41.21-1.58.75-3.18,1.63-4.86,1.94-10.32,1.91-20.61,4.18-31.01,5.4-23.63,2.77-47.26,6.03-70.99,7.18-24,1.16-48.12.06-72.18-.15-3.75-.03-7.51-.41-11.23-.9-12.52-1.66-25.08-3.14-37.52-5.28-12.97-2.23-25.83-5.13-39.08-7.81,12.5-19.23,29.07-32.98,47.25-44.94,22.03-14.49,45.75-25.79,69.96-36.03,20.53-8.68,41.05-17.45,61.96-25.12,22.69-8.32,45.72-15.78,68.82-22.93,21.81-6.75,43.81-12.91,65.88-18.76,22.08-5.85,44.25-11.48,66.57-16.32,21.95-4.76,44.1-8.57,66.23-12.46,18.06-3.18,36.18-6.12,54.34-8.67,13.68-1.92,27.47-3.11,41.22-4.52,14.65-1.5,29.29-3.49,43.98-4.17,24.08-1.11,48.2-1.72,72.3-1.83,22.71-.1,45.35,1.36,67.69,6,23.1,4.8,44.67,13.14,63.64,27.43,5.46,4.11,10.59,8.66,16.62,13.62,2.38-4.93,4.99-9.46,6.82-14.28,7-18.44,8.16-37.93,8.6-57.29.42-18.6-.68-37.25-1.75-55.84-.19-3.32.79-7.4-3.41-10.49-15.56-11.46-33.3-16.59-52-18.91-23.09-2.87-46.3-2.76-69.46-.97-23.27,1.8-46.56,3.63-69.74,6.29-19.1,2.19-38.08,5.51-57.08,8.53-42.09,6.67-83.81,15.21-125.24,25.18-51.81,12.46-103.11,26.75-153.8,43.19-47.44,15.39-94.84,30.93-140.64,50.89-17.96,7.83-36.24,14.94-53.98,23.24-16.21,7.58-32.12,15.9-47.75,24.62-25.11,14.01-48.4,30.63-68.76,51.13-6.14,6.18-11.42,12.97-14.3,21.3-5.63,16.31-.59,30.95,8.02,44.57,5.74,9.07,12.4,17.57,18.97,26.08,3.78,4.9,7.48,10.43,12.51,13.65,6.99,4.48,15.02,7.57,22.92,10.36,20.96,7.39,42.82,9.83,64.9,10.07,13.1.14,26.21-.46,39.31-.82,7.26-.2,14.52-.46,21.76-.91,4.3-.27,8.57-1.04,12.87-1.41,8.12-.7,16.25-1.26,25.06-1.93ZM60.03,636.07c14.68,1.12,29.31,2.88,43.96,3.19,22.05.47,43.9-2.33,65.66-5.91,17.4-2.86,34.9-5.14,52.3-8.03,22.09-3.68,44.18-7.46,66.18-11.64,65.88-12.54,131.48-26.38,196.61-42.41,76.17-18.75,151.82-39.42,226.11-64.69,43.59-14.83,86.81-30.8,129.83-47.2,24.44-9.31,49.04-12.61,74.49-6.99,12.87,2.84,25.39,7.31,37.95,11.02-.08-.27-.22-1.39-.67-2.36-10.08-21.52-19.35-43.47-30.55-64.38-9.77-18.23-21.8-35.24-32.66-52.88-1.71-2.77-3.87-3.78-6.81-3.79-12.94-.04-25.91-.52-38.82.07-11.3.52-22.61,1.78-33.79,3.55-25.69,4.06-51.42,8.04-76.92,13.11-51.78,10.3-103.59,20.57-155.08,32.22-47.9,10.84-95.55,22.9-143.04,35.47-48.2,12.76-96.27,26.06-144,40.49-40.43,12.22-80.41,25.99-120.32,39.84-18.19,6.31-35.93,14.06-53.53,21.93-11.76,5.26-22.77,12.19-34.37,17.83-16.9,8.23-24.47,21.93-24.53,40.2-.03,9.02.48,18.05.83,27.07.3,7.56.72,15.11,1.17,24.3ZM809.43,258.63c-1.66-1.37-2.48-2.19-3.43-2.81-12.97-8.41-25.99-16.75-38.95-25.2-23.1-15.05-47.19-28.24-72.8-38.53-2.71-1.09-6.05-2.56-8.57-1.88-28.11,7.6-56.04,15.85-84.16,23.4-35.85,9.62-71.78,18.96-107.76,28.04-36,9.09-72.11,17.76-108.2,26.53-22.84,5.55-45.71,10.98-68.58,16.4-32.17,7.62-64.33,15.26-96.53,22.75-13.11,3.05-26.25,6.03-39.48,8.45-10.64,1.95-19.72,6.5-26.9,14.39-5.17,5.68-9.9,11.81-14.35,18.08-6.78,9.55-13.14,19.39-20.03,29.64,5.53-.75,10.53-1.28,15.48-2.13,17.94-3.08,35.89-6.1,53.78-9.44,38.12-7.1,76.24-14.22,114.3-21.65,35.58-6.94,71.08-14.29,106.62-21.43,20.95-4.21,41.91-8.39,62.86-12.57,15.71-3.13,31.41-6.3,47.13-9.37,13.48-2.63,26.98-5.17,40.47-7.71,9.85-1.85,19.69-3.75,29.56-5.45,13.22-2.28,26.45-4.44,39.7-6.55,14.41-2.29,28.82-4.5,43.25-6.64,8.95-1.33,17.93-2.46,26.89-3.69,10.24-1.4,20.46-2.91,30.72-4.2,8.43-1.06,16.89-1.84,25.34-2.78,10.01-1.11,20.01-2.31,30.02-3.38,7.48-.8,14.98-1.45,23.62-2.28ZM15.84,455.64c-.18,27.5,20.96,42.51,42.41,44.69,21.48,2.19,47.58-18.01,46.65-45.75-.81-24.16-21.51-43.78-44.46-43.03-25.25.83-43.64,16.27-44.61,44.09ZM682.82,105.45c26.73,1,45.91-22.11,45.77-43.44-.16-24.33-20.22-44.18-44.79-44.44-28.83-.3-43.15,19.73-43.99,43.96-.84,24.27,19.6,44.73,43.01,43.92ZM577.99,160.18c-2.41-.14-4.82-.22-7.21-.43-27.95-2.47-55.94-2.9-83.95-1.48-10.61.54-21.25,1.29-31.77,2.71-13.94,1.88-27.89,4-41.63,6.98-13.93,3.02-27.75,6.73-41.34,11.04-11.13,3.53-22.04,7.94-32.69,12.77-10.15,4.6-19.82,10.25-29.71,15.43.15.41.31.82.46,1.23,90.74-7.29,179.18-27.71,267.83-48.24ZM208.27,173.07c-1.17,0-2.41-.27-3.49.05-4.49,1.3-10.05,1.56-13.16,4.44-6.68,6.17-9.86,14.69-10.64,23.88-1.07,12.64,5.26,23.59,17.13,27.87,10.11,3.64,19.96,2.35,28.82-4.37,7.65-5.8,12.53-13.23,12.56-22.9.05-17.03-13.02-28.89-31.22-28.96ZM70.25,720.21c.26-16.47-12.64-25.38-27.44-20.7-13.75,4.34-18.5,19.24-9.8,30.28,6.08,7.72,14.23,11.47,24.13,10.65,1.84-.15,4.05-1.07,5.28-2.39,4.92-5.28,7.95-11.5,7.84-17.83Z"/>
    <path class="cls-2" d="M344.89,906.53c-8.82.67-16.95,1.24-25.06,1.93-4.3.37-8.57,1.15-12.87,1.41-7.25.45-14.5.71-21.76.91-13.1.36-26.21.96-39.31.82-22.08-.24-43.94-2.68-64.9-10.07-7.9-2.79-15.93-5.88-22.92-10.36-5.03-3.22-8.73-8.75-12.51-13.65-6.57-8.51-13.24-17.01-18.97-26.08-8.61-13.62-13.66-28.26-8.02-44.57,2.88-8.33,8.16-15.12,14.3-21.3,20.36-20.49,43.64-37.11,68.76-51.13,15.63-8.72,31.54-17.04,47.75-24.62,17.74-8.29,36.02-15.41,53.98-23.24,45.8-19.96,93.2-35.5,140.64-50.89,50.69-16.44,101.99-30.73,153.8-43.19,41.43-9.96,83.15-18.51,125.24-25.18,19-3.01,37.98-6.33,57.08-8.53,23.18-2.66,46.47-4.48,69.74-6.29,23.16-1.8,46.37-1.91,69.46.97,18.7,2.33,36.44,7.45,52,18.91,4.19,3.09,3.21,7.17,3.41,10.49,1.07,18.59,2.17,37.25,1.75,55.84-.44,19.35-1.6,38.84-8.6,57.29-1.83,4.83-4.44,9.36-6.82,14.28-6.03-4.97-11.16-9.51-16.62-13.62-18.98-14.29-40.54-22.63-63.64-27.43-22.34-4.64-44.99-6.1-67.69-6-24.1.11-48.22.72-72.3,1.83-14.69.68-29.33,2.67-43.98,4.17-13.75,1.41-27.54,2.6-41.22,4.52-18.16,2.55-36.28,5.5-54.34,8.67-22.12,3.89-44.28,7.71-66.23,12.46-22.32,4.84-44.48,10.47-66.57,16.32-22.07,5.85-44.07,12.01-65.88,18.76-23.1,7.15-46.13,14.61-68.82,22.93-20.91,7.67-41.44,16.44-61.96,25.12-24.21,10.24-47.93,21.54-69.96,36.03-18.18,11.96-34.75,25.7-47.25,44.94,13.25,2.68,26.11,5.58,39.08,7.81,12.44,2.14,25,3.61,37.52,5.28,3.72.49,7.48.87,11.23.9,24.06.21,48.18,1.31,72.18.15,23.73-1.15,47.37-4.41,70.99-7.18,10.41-1.22,20.69-3.48,31.01-5.4,1.68-.31,3.28-1.19,4.86-1.94,33.78-16.08,68.54-29.68,104.11-41.21,49.76-16.13,100.56-28.05,152.13-36.61,30.07-4.99,60.23-9.51,90.43-13.71,18.63-2.6,37.4-4.28,56.12-6.25,9.54-1,17.69-5.42,25.79-10.01,13.08-7.42,25.9-15.34,39.24-22.25,8.18-4.24,17.12-6.76,26.22.08-25.58,13.97-51.67,26.07-79.94,36.93,5.27,1.52,9.28,2.73,13.32,3.83,14.73,4.04,29.73,7.26,44.12,12.27,16.07,5.6,25.62,17.79,28.8,34.65.33,1.73.2,3.82-.46,5.42-18.39,44.31-46.31,81.4-83.83,111.36-23.93,19.11-50.18,34.25-77.84,47.09-22.58,10.48-45.91,19.05-69.61,26.61-43.29,13.8-87.44,24.41-131.76,34.19-13.47,2.97-27.47,3.68-41.27,4.97-13.08,1.22-26.21,2.1-39.33,2.65-14.41.6-28.87,1.41-43.25.78-30.06-1.31-59.67-5.86-88-16.56-18.12-6.85-35.05-16.18-48.11-30.58-4.34-4.78-5.84-12.94-6.82-19.82-2.45-17.09,4.71-31.41,16.22-43.19,9.89-10.13,21.07-19,31.71-28.39,1.58-1.4,3.32-2.62,5.5-4.33ZM452.52,1037.45c29.63-.42,54.89-1.81,79.99-5.44,14.34-2.07,28.78-3.59,43.01-6.28,20.07-3.79,40.2-7.62,59.92-12.9,24.24-6.48,48.22-14.01,72.03-21.96,17.73-5.92,35.03-13.13,52.44-19.95,9.24-3.62,18.06-8.5,27.53-11.26,12.73-3.71,23.28-10.33,31.9-20.06,7.75-8.75,15.05-17.92,22.34-27.06.85-1.06,1.03-3.36.52-4.7-6.61-17.08-19.03-28.66-35.62-35.54-23.46-9.74-48.43-12.28-73.47-13.18-27.17-.97-54.3.76-81.28,4.27-14.39,1.87-28.79,3.76-43.11,6.13-35.27,5.81-69.81,14.69-103.54,26.49-39.94,13.97-78.79,30.32-113.72,54.75-19.35,13.53-35.64,29.77-45.34,51.75-.89,2.01-1.95,4.51-1.5,6.45,1.91,8.36,6.81,14.61,14.48,18.7,10.44,5.57,21.85,7.06,33.32,7.64,21.45,1.08,42.92,1.56,60.1,2.15Z"/>
    <path class="cls-2" d="M60.03,636.07c-.45-9.2-.87-16.75-1.17-24.3-.35-9.02-.86-18.05-.83-27.07.06-18.27,7.63-31.97,24.53-40.2,11.6-5.65,22.61-12.57,34.37-17.83,17.6-7.87,35.34-15.61,53.53-21.93,39.91-13.85,79.89-27.62,120.32-39.84,47.72-14.42,95.8-27.73,144-40.49,47.48-12.57,95.13-24.63,143.04-35.47,51.49-11.66,103.29-21.93,155.08-32.22,25.5-5.07,51.23-9.05,76.92-13.11,11.18-1.77,22.49-3.03,33.79-3.55,12.91-.59,25.88-.11,38.82-.07,2.94,0,5.11,1.02,6.81,3.79,10.86,17.65,22.89,34.66,32.66,52.88,11.21,20.91,20.47,42.87,30.55,64.38.45.97.6,2.09.67,2.36-12.57-3.7-25.08-8.17-37.95-11.02-25.44-5.62-50.05-2.32-74.49,6.99-43.03,16.4-86.24,32.37-129.83,47.2-74.28,25.27-149.93,45.94-226.11,64.69-65.13,16.03-130.73,29.87-196.61,42.41-22,4.19-44.09,7.97-66.18,11.64-17.4,2.89-34.9,5.17-52.3,8.03-21.75,3.57-43.61,6.38-65.66,5.91-14.66-.31-29.28-2.08-43.96-3.19ZM857.58,443.93c-10.24.77-20.48,1.53-30.72,2.33-7.37.57-14.75,1.11-22.11,1.81-11.19,1.07-22.36,2.28-33.54,3.39-6.75.67-13.51,1.16-20.25,1.91-9.43,1.04-18.84,2.28-28.27,3.36-8.76,1-17.54,1.82-26.29,2.89-13.27,1.61-26.53,3.38-39.8,5.06-9.43,1.2-18.88,2.24-28.28,3.58-8.93,1.27-17.81,2.91-26.74,4.27-10.5,1.6-21.04,2.91-31.51,4.62-14.83,2.43-29.62,5.13-44.43,7.68-14.11,2.42-28.28,4.57-42.35,7.24-15.3,2.9-30.53,6.2-45.77,9.46-27.53,5.88-55.14,11.4-82.51,17.93-30.75,7.33-61.47,14.9-91.84,23.63-38.81,11.15-77.27,23.55-115.87,35.46-5.65,1.74-11.23,3.73-16.84,5.61,247.95-18.28,489.2-70.69,727.13-140.21Z"/>
    <path class="cls-2" d="M809.43,258.63c-8.64.83-16.13,1.48-23.62,2.28-10.01,1.07-20.01,2.26-30.02,3.38-8.44.94-16.91,1.73-25.34,2.78-10.25,1.29-20.48,2.8-30.72,4.2-8.96,1.23-17.94,2.36-26.89,3.69-14.43,2.14-28.85,4.36-43.25,6.64-13.24,2.1-26.48,4.27-39.7,6.55-9.87,1.7-19.71,3.59-29.56,5.45-13.5,2.54-26.99,5.08-40.47,7.71-15.72,3.07-31.42,6.23-47.13,9.37-20.96,4.18-41.91,8.36-62.86,12.57-35.54,7.15-71.04,14.5-106.62,21.43-38.06,7.42-76.18,14.54-114.3,21.65-17.89,3.33-35.84,6.36-53.78,9.44-4.95.85-9.95,1.38-15.48,2.13,6.89-10.24,13.26-20.09,20.03-29.64,4.45-6.27,9.18-12.41,14.35-18.08,7.19-7.89,16.27-12.44,26.9-14.39,13.23-2.42,26.37-5.4,39.48-8.45,32.2-7.49,64.36-15.12,96.53-22.75,22.87-5.42,45.74-10.85,68.58-16.4,36.08-8.77,72.19-17.44,108.2-26.53,35.99-9.08,71.92-18.42,107.76-28.04,28.12-7.55,56.05-15.8,84.16-23.4,2.52-.68,5.86.79,8.57,1.88,25.61,10.29,49.7,23.48,72.8,38.53,12.96,8.44,25.98,16.78,38.95,25.2.95.62,1.77,1.44,3.43,2.81Z"/>
    <path class="cls-2" d="M15.84,455.64c.96-27.82,19.36-43.26,44.61-44.09,22.94-.75,43.64,18.87,44.46,43.03.93,27.74-25.18,47.94-46.65,45.75-21.45-2.19-42.59-17.19-42.41-44.69Z"/>
    <path class="cls-2" d="M682.82,105.45c-23.41.81-43.85-19.65-43.01-43.92.84-24.22,15.16-44.26,43.99-43.96,24.56.26,44.63,20.11,44.79,44.44.14,21.32-19.04,44.44-45.77,43.44Z"/>
    <path class="cls-2" d="M577.99,160.18c-88.65,20.53-177.09,40.95-267.83,48.24-.15-.41-.31-.82-.46-1.23,9.88-5.19,19.56-10.83,29.71-15.43,10.64-4.83,21.56-9.24,32.69-12.77,13.59-4.31,27.41-8.02,41.34-11.04,13.74-2.98,27.69-5.1,41.63-6.98,10.52-1.42,21.16-2.17,31.77-2.71,28.01-1.42,56-.98,83.95,1.48,2.4.21,4.81.29,7.21.43Z"/>
    <path class="cls-2" d="M208.27,173.07c18.2.07,31.27,11.94,31.22,28.96-.03,9.67-4.91,17.11-12.56,22.9-8.87,6.72-18.72,8.01-28.82,4.37-11.87-4.27-18.2-15.23-17.13-27.87.78-9.19,3.96-17.71,10.64-23.88,3.11-2.87,8.67-3.14,13.16-4.44,1.08-.31,2.32-.05,3.49-.05Z"/>
    <path class="cls-2" d="M70.25,720.21c.11,6.33-2.92,12.55-7.84,17.83-1.23,1.32-3.44,2.24-5.28,2.39-9.9.82-18.05-2.93-24.13-10.65-8.7-11.03-3.95-25.93,9.8-30.28,14.8-4.68,27.7,4.23,27.44,20.7Z"/>
    <path class="cls-3" d="M452.52,1037.45c-17.18-.59-38.65-1.07-60.1-2.15-11.47-.58-22.88-2.07-33.32-7.64-7.68-4.1-12.57-10.34-14.48-18.7-.44-1.94.62-4.44,1.5-6.45,9.71-21.98,25.99-38.22,45.34-51.75,34.94-24.43,73.78-40.77,113.72-54.75,33.74-11.8,68.27-20.68,103.54-26.49,14.32-2.36,28.72-4.25,43.11-6.13,26.98-3.51,54.11-5.24,81.28-4.27,25.03.89,50.01,3.44,73.47,13.18,16.59,6.89,29.01,18.46,35.62,35.54.52,1.34.33,3.64-.52,4.7-7.3,9.14-14.59,18.31-22.34,27.06-8.62,9.73-19.17,16.35-31.9,20.06-9.46,2.76-18.29,7.64-27.53,11.26-17.42,6.82-34.72,14.03-52.44,19.95-23.81,7.95-47.79,15.48-72.03,21.96-19.72,5.27-39.84,9.11-59.92,12.9-14.23,2.68-28.67,4.2-43.01,6.28-25.1,3.63-50.36,5.02-79.99,5.44Z"/>
    <path class="cls-3" d="M857.58,443.93c-237.93,69.52-479.18,121.93-727.13,140.21,5.61-1.88,11.19-3.86,16.84-5.61,38.6-11.91,77.05-24.3,115.87-35.46,30.37-8.73,61.09-16.3,91.84-23.63,27.37-6.52,54.99-12.04,82.51-17.93,15.23-3.26,30.46-6.55,45.77-9.46,14.07-2.67,28.23-4.82,42.35-7.24,14.81-2.54,29.6-5.25,44.43-7.68,10.48-1.71,21.02-3.03,31.51-4.62,8.92-1.36,17.8-3,26.74-4.27,9.41-1.34,18.86-2.39,28.28-3.58,13.27-1.68,26.52-3.45,39.8-5.06,8.75-1.06,17.53-1.88,26.29-2.89,9.43-1.08,18.84-2.32,28.27-3.36,6.74-.74,13.5-1.24,20.25-1.91,11.18-1.11,22.36-2.33,33.54-3.39,7.36-.7,14.74-1.24,22.11-1.81,10.24-.8,20.48-1.55,30.72-2.33Z"/>
  </g>
  <g>
    <path class="cls-2" d="M1030.2,1080.25H0V0h1030.2v1080.25ZM.25,1080h1029.7V.25H.25v1079.75ZM445.44,1049.76c-3.7,0-7.39-.07-11.05-.23-33.61-1.47-62.41-6.89-88.04-16.57-20.88-7.89-36.63-17.9-48.16-30.62-4.18-4.61-5.76-12.28-6.85-19.88-2.21-15.42,3.26-29.99,16.25-43.3,6.98-7.14,14.72-13.77,22.21-20.18,3.13-2.68,6.37-5.45,9.51-8.22,1.06-.93,2.17-1.78,3.46-2.76.54-.41,1.11-.85,1.72-1.32-2.48.19-4.91.37-7.3.55-5.99.45-11.65.87-17.35,1.36-1.91.16-3.84.41-5.71.65-2.34.3-4.77.61-7.16.76-6.33.39-13.25.68-21.77.91-3.27.09-6.6.2-9.82.3-9.67.31-19.66.63-29.49.52-25.6-.28-46.24-3.49-64.94-10.08-7.27-2.56-15.64-5.69-22.95-10.37-4.27-2.74-7.59-7.13-10.8-11.38-.58-.77-1.16-1.54-1.75-2.3l-1.35-1.75c-6.04-7.81-12.29-15.89-17.63-24.34-10.35-16.37-12.91-30.57-8.03-44.68,2.5-7.25,7.06-14.03,14.33-21.35,19.15-19.28,41.65-36.01,68.78-51.15,17.08-9.53,32.7-17.58,47.76-24.62,11.08-5.18,22.57-9.99,33.68-14.63,6.67-2.79,13.56-5.67,20.3-8.61,47.34-20.63,96.91-36.71,140.65-50.9,49.08-15.92,100.83-30.45,153.81-43.19,43.75-10.52,84.72-18.76,125.25-25.18,4.09-.65,8.26-1.32,12.28-1.98,14.66-2.38,29.81-4.83,44.8-6.55,23.57-2.71,47.05-4.53,69.75-6.29,25.58-1.98,48.31-1.67,69.49.97,21.63,2.69,38.18,8.71,52.06,18.94,3.47,2.56,3.45,5.82,3.43,8.69,0,.66,0,1.28.03,1.89l.07,1.14c1.03,17.94,2.1,36.49,1.69,54.72-.42,18.64-1.43,38.42-8.61,57.33-1.25,3.3-2.84,6.41-4.52,9.7-.76,1.49-1.55,3.03-2.31,4.6l-.07.14-.12-.1c-1.96-1.61-3.82-3.18-5.62-4.69-3.76-3.16-7.31-6.15-10.99-8.92-17.51-13.19-38.31-22.15-63.59-27.4-19.97-4.15-42.12-6.1-67.67-6-24.03.11-48.36.72-72.3,1.83-10.7.5-21.56,1.71-32.05,2.88-3.91.44-7.95.89-11.92,1.29-3.18.33-6.36.64-9.55.96-10.4,1.03-21.16,2.09-31.67,3.56-16.78,2.36-34.55,5.19-54.34,8.67l-5.19.91c-20.06,3.52-40.8,7.17-61.03,11.55-24.23,5.25-48.3,11.48-66.56,16.32-24.69,6.54-46.24,12.68-65.88,18.75-27.82,8.61-49.05,15.68-68.82,22.92-19.5,7.15-38.97,15.39-57.8,23.36l-4.16,1.76c-29.4,12.43-50.97,23.54-69.94,36.02-21.73,14.29-36.26,28.1-47.12,44.75,4,.81,8.03,1.65,11.92,2.46,9.25,1.93,17.99,3.76,26.98,5.31,9.7,1.66,19.63,2.95,29.24,4.2,2.76.36,5.52.71,8.28,1.08,4.43.59,7.99.88,11.21.9,6.83.06,13.77.19,20.49.32,16.96.33,34.49.66,51.68-.17,19.31-.94,38.89-3.31,57.81-5.6,4.32-.52,8.78-1.06,13.17-1.58,7.8-.92,15.67-2.44,23.27-3.92,2.53-.49,5.16-1,7.74-1.48,1.39-.26,2.74-.92,4.04-1.55.26-.13.52-.26.79-.38,32.61-15.53,67.65-29.39,104.13-41.22,47.67-15.45,98.86-27.77,152.14-36.61,28.11-4.67,57.69-9.15,90.43-13.71,14.29-1.99,28.89-3.47,43-4.9,4.3-.44,8.75-.89,13.12-1.34,9.21-.96,17.1-5.1,25.74-10,4.35-2.47,8.75-5.03,13-7.52,8.53-4.98,17.34-10.12,26.25-14.74,7.23-3.75,16.76-7.12,26.35.1l.16.12-.17.09c-25.7,14.04-51.74,26.08-79.61,36.81,1.61.46,3.09.9,4.5,1.31,3.09.9,5.75,1.68,8.45,2.42,4.61,1.26,9.33,2.47,13.9,3.63,10,2.55,20.35,5.2,30.23,8.64,15.63,5.45,25.62,17.46,28.89,34.74.35,1.85.17,3.95-.47,5.49-9.15,22.06-20.85,42.61-34.76,61.09-13.91,18.47-30.43,35.4-49.11,50.32-22.07,17.62-47.54,33.03-77.86,47.11-20.45,9.49-43.22,18.2-69.63,26.61-45.92,14.64-92.38,25.5-131.77,34.2-10.71,2.36-21.92,3.31-32.77,4.22-2.79.24-5.68.48-8.51.74-13.03,1.21-26.26,2.11-39.34,2.65-1.78.07-3.57.15-5.35.23-8.82.38-17.85.77-26.85.77ZM345.29,906.37l-.33.25c-.73.57-1.41,1.08-2.05,1.57-1.29.98-2.4,1.82-3.45,2.75-3.14,2.77-6.38,5.54-9.51,8.23-7.48,6.4-15.22,13.02-22.19,20.16-12.94,13.25-18.39,27.75-16.19,43.09,1.09,7.57,2.66,15.19,6.79,19.75,11.5,12.68,27.22,22.68,48.06,30.55,25.6,9.67,54.37,15.09,87.96,16.55,12.6.55,25.45,0,37.89-.55,1.78-.08,3.57-.16,5.35-.23,13.07-.54,26.3-1.44,39.33-2.65,2.83-.26,5.72-.51,8.52-.74,10.83-.91,22.04-1.86,32.73-4.22,39.39-8.69,85.84-19.55,131.75-34.19,26.4-8.42,49.16-17.12,69.6-26.6,30.31-14.07,55.76-29.46,77.81-47.07,37.32-29.8,65.51-67.25,83.79-111.31.62-1.5.8-3.55.46-5.35-3.25-17.19-13.18-29.13-28.72-34.55-9.87-3.44-20.21-6.08-30.21-8.63-4.56-1.17-9.29-2.37-13.9-3.64-2.7-.74-5.37-1.52-8.46-2.42-1.51-.44-3.12-.91-4.86-1.41l-.36-.1.35-.13c27.93-10.74,54.02-22.79,79.76-36.83-9.38-6.94-18.37-3.88-25.93.04-8.9,4.61-17.71,9.76-26.24,14.73-4.25,2.48-8.65,5.05-13,7.52-8.66,4.91-16.58,9.06-25.83,10.03-4.37.46-8.82.91-13.12,1.34-14.12,1.43-28.71,2.91-43,4.9-32.73,4.56-62.31,9.05-90.42,13.71-53.27,8.84-104.45,21.16-152.11,36.61-36.47,11.82-71.49,25.68-104.1,41.2-.26.12-.52.25-.78.38-1.32.65-2.68,1.31-4.1,1.58-2.58.48-5.2.99-7.73,1.48-7.61,1.48-15.48,3-23.29,3.92-4.39.52-8.85,1.06-13.17,1.58-18.93,2.29-38.51,4.67-57.83,5.6-17.2.83-34.74.5-51.7.17-6.72-.13-13.66-.26-20.49-.32-3.23-.03-6.81-.32-11.24-.91-2.76-.37-5.52-.72-8.28-1.08-9.61-1.24-19.54-2.53-29.25-4.2-9-1.54-17.74-3.37-26.99-5.31-3.95-.83-8.03-1.68-12.09-2.5l-.18-.04.1-.15c10.88-16.75,25.47-30.62,47.29-44.97,18.98-12.49,40.57-23.61,69.98-36.04l4.16-1.76c18.83-7.97,38.31-16.21,57.81-23.36,19.77-7.25,41-14.32,68.83-22.93,19.64-6.08,41.19-12.21,65.89-18.76,18.26-4.84,42.34-11.07,66.57-16.32,20.23-4.38,40.98-8.03,61.04-11.55l5.19-.91c19.79-3.48,37.56-6.32,54.34-8.68,10.52-1.48,21.28-2.54,31.68-3.57,3.18-.31,6.37-.63,9.55-.95,3.97-.41,8.01-.86,11.92-1.29,10.5-1.17,21.36-2.38,32.07-2.88,23.94-1.11,48.27-1.72,72.31-1.83,25.59-.1,47.73,1.85,67.72,6,25.32,5.26,46.15,14.24,63.69,27.45,3.69,2.78,7.24,5.77,11,8.93,1.76,1.48,3.59,3.02,5.5,4.59.74-1.52,1.5-3.01,2.24-4.46,1.68-3.28,3.26-6.38,4.51-9.67,7.16-18.87,8.17-38.63,8.59-57.24.41-18.21-.66-36.76-1.69-54.7l-.07-1.14c-.04-.61-.03-1.24-.03-1.9.02-2.82.04-6.01-3.33-8.49-13.85-10.2-30.35-16.21-51.94-18.89-21.16-2.63-43.87-2.95-69.44-.97-22.7,1.76-46.17,3.58-69.74,6.29-14.98,1.72-30.13,4.17-44.79,6.55-4.03.65-8.19,1.33-12.28,1.98-40.52,6.42-81.49,14.66-125.23,25.17-52.97,12.74-104.71,27.27-153.79,43.19-43.73,14.18-93.3,30.26-140.63,50.89-6.74,2.94-13.63,5.82-20.3,8.61-11.1,4.64-22.59,9.45-33.67,14.63-15.05,7.04-30.67,15.09-47.75,24.62-27.11,15.13-49.6,31.85-68.73,51.1-7.25,7.29-11.78,14.05-14.27,21.26-4.85,14.03-2.3,28.16,8.01,44.46,5.34,8.44,11.58,16.52,17.62,24.33l1.35,1.75c.58.75,1.16,1.52,1.75,2.3,3.19,4.23,6.5,8.61,10.73,11.32,7.29,4.67,15.64,7.79,22.9,10.35,18.68,6.58,39.29,9.78,64.86,10.06,9.82.11,19.82-.21,29.48-.52,3.22-.1,6.55-.21,9.83-.3,8.51-.23,15.43-.52,21.76-.91,2.39-.15,4.81-.46,7.15-.76,1.87-.24,3.81-.49,5.72-.65,5.7-.49,11.36-.91,17.36-1.36,2.52-.19,5.08-.38,7.71-.58l.41-.03ZM54.46,740.67c-8.65,0-15.89-3.63-21.55-10.81-4.12-5.22-5.43-11.62-3.61-17.54,1.88-6.11,6.79-10.82,13.47-12.93,7.23-2.29,14.37-1.37,19.58,2.51,5.3,3.94,8.15,10.45,8.02,18.31.1,6.08-2.62,12.28-7.88,17.92-1.18,1.27-3.39,2.27-5.36,2.43-.91.08-1.81.11-2.69.11ZM50.49,698.4c-2.48,0-5.06.4-7.65,1.22-6.6,2.09-11.45,6.74-13.31,12.77-1.8,5.84-.5,12.15,3.57,17.31,6.18,7.84,14.26,11.4,24.02,10.6,1.91-.16,4.05-1.13,5.2-2.35,5.21-5.59,7.91-11.72,7.81-17.74h0c.12-7.78-2.69-14.21-7.92-18.11-3.28-2.45-7.34-3.7-11.71-3.7ZM108.81,639.45c-1.6,0-3.21-.02-4.82-.05-10.12-.22-20.41-1.14-30.35-2.03-4.46-.4-9.08-.82-13.62-1.16h-.11s0-.12,0-.12c-.14-2.92-.28-5.68-.42-8.32-.28-5.57-.55-10.83-.75-15.98-.08-2-.16-4.01-.25-6.01-.3-6.9-.6-14.04-.58-21.07.03-9.28,2.04-17.33,5.97-23.93,4.07-6.83,10.34-12.34,18.63-16.38,5.05-2.46,10.07-5.2,14.92-7.86,6.3-3.44,12.81-7.01,19.45-9.98,16.92-7.57,35-15.5,53.54-21.93,42.52-14.75,80.92-27.93,120.33-39.84,43.15-13.04,88.91-25.9,144-40.49,55.06-14.57,100.51-25.84,143.04-35.47,50.36-11.4,101.87-21.64,151.68-31.55l3.4-.68c23.67-4.71,47.92-8.53,71.38-12.23l5.54-.87c11.82-1.87,23.19-3.06,33.81-3.55,9.17-.42,18.51-.3,27.55-.18,3.7.05,7.52.1,11.28.11,3.15,0,5.28,1.2,6.92,3.85,3.7,6.01,7.6,12.05,11.38,17.89,7.3,11.3,14.84,22.98,21.29,35,7.9,14.74,14.95,30.25,21.77,45.26,2.86,6.28,5.81,12.78,8.79,19.13.36.77.53,1.63.62,2.09.03.13.04.23.06.29l.06.22-.21-.06c-3.91-1.15-7.87-2.4-11.71-3.6-8.54-2.68-17.37-5.45-26.23-7.41-23.89-5.28-48.23-2.99-74.41,6.98-50.45,19.23-91.71,34.23-129.84,47.2-65.52,22.29-137.37,42.85-226.12,64.7-60.19,14.82-124.5,28.69-196.61,42.41-23.3,4.43-46.53,8.37-66.18,11.64-8.96,1.49-18.1,2.84-26.94,4.15-8.32,1.23-16.92,2.5-25.35,3.88-18.12,2.98-39.33,5.96-60.87,5.96ZM60.15,635.96c4.51.34,9.09.75,13.51,1.15,9.94.89,20.22,1.82,30.33,2.03,23.15.5,46.17-2.71,65.64-5.9,8.44-1.39,17.04-2.66,25.36-3.89,8.84-1.31,17.98-2.66,26.94-4.15,19.65-3.27,42.88-7.21,66.18-11.64,72.11-13.72,136.42-27.59,196.6-42.41,88.74-21.85,160.59-42.4,226.1-64.69,38.13-12.97,79.38-27.97,129.83-47.2,26.23-10,50.61-12.28,74.56-6.99,8.88,1.96,17.71,4.74,26.25,7.42,3.77,1.18,7.67,2.41,11.5,3.54,0-.03-.01-.06-.02-.09-.09-.45-.25-1.29-.6-2.04-2.98-6.35-5.93-12.85-8.79-19.13-6.82-15-13.87-30.51-21.76-45.24-6.44-12.01-13.98-23.69-21.28-34.98-3.77-5.84-7.68-11.88-11.38-17.9-1.58-2.57-3.65-3.72-6.71-3.73-3.76-.01-7.58-.06-11.28-.11-9.03-.12-18.37-.24-27.53.18-10.61.49-21.97,1.68-33.78,3.54l-5.54.87c-23.45,3.7-47.7,7.53-71.37,12.23l-3.4.68c-49.81,9.91-101.32,20.15-151.67,31.55-42.53,9.63-87.98,20.9-143.03,35.47-55.09,14.58-100.85,27.45-143.99,40.48-39.4,11.91-77.8,25.09-120.32,39.84-18.53,6.43-36.6,14.35-53.52,21.92-6.64,2.97-13.14,6.53-19.44,9.97-4.86,2.66-9.88,5.4-14.93,7.86-16.4,7.98-24.4,21.09-24.46,40.09-.02,7.02.28,14.15.58,21.05.09,2,.17,4.01.25,6.01.2,5.15.47,10.41.75,15.98.13,2.61.27,5.33.41,8.21ZM61.53,500.62c-1.11,0-2.2-.05-3.29-.17-11.34-1.16-21.77-5.73-29.39-12.89-8.68-8.15-13.22-19.19-13.13-31.93h0c.46-13.36,5.04-24.51,13.23-32.25,7.84-7.4,18.73-11.54,31.49-11.96,11.02-.36,22.17,4.09,30.62,12.21,8.61,8.28,13.58,19.27,13.97,30.94.43,12.64-4.7,24.61-14.43,33.7-8.42,7.87-19.07,12.35-29.08,12.35ZM15.97,455.64h0c-.18,27.79,21.11,42.41,42.3,44.57,10.84,1.11,22.87-3.42,32.17-12.11,9.67-9.04,14.77-20.94,14.35-33.51-.79-23.57-20.35-42.93-43.02-42.93-.44,0-.87,0-1.31.02-26.53.87-43.57,17.72-44.48,43.97ZM119.44,378.06l.16-.23c2.08-3.09,4.13-6.17,6.11-9.15,4.73-7.1,9.19-13.81,13.92-20.49,5.04-7.1,9.74-13.02,14.36-18.1,6.98-7.66,15.81-12.38,26.97-14.43,13.63-2.5,26.97-5.54,39.47-8.45,29.39-6.83,59.25-13.91,88.12-20.76l8.41-1.99c19.96-4.73,44.81-10.62,68.58-16.4,6.77-1.65,13.54-3.29,20.31-4.93,28.83-6.99,58.63-14.22,87.88-21.6,36.68-9.26,72.94-18.69,107.76-28.04,14.59-3.92,29.37-8.09,43.67-12.13,13.26-3.74,26.97-7.62,40.49-11.27,2.4-.65,5.45.58,8.13,1.67l.52.21c24,9.65,47.82,22.26,72.82,38.55,7.58,4.94,15.31,9.93,22.79,14.75,5.3,3.42,10.78,6.96,16.16,10.45.62.4,1.17.88,1.94,1.54.42.37.91.78,1.5,1.27l.23.19-.3.03c-2.75.26-5.38.51-7.93.75-5.44.51-10.58.99-15.68,1.53-6.09.65-12.27,1.36-18.25,2.04-3.92.45-7.85.9-11.77,1.33-3.03.34-6.12.66-9.11.97-5.32.56-10.83,1.13-16.23,1.81-6.98.88-14.07,1.87-20.92,2.83-3.26.46-6.53.92-9.8,1.37-2.97.41-5.94.8-8.92,1.2-5.9.79-11.99,1.6-17.97,2.49-14.44,2.15-28.99,4.38-43.25,6.65-14.54,2.31-27.52,4.45-39.69,6.55-8.25,1.42-16.61,3-24.7,4.53-1.62.31-3.24.61-4.86.92l-2.39.45c-12.49,2.35-25.4,4.78-38.08,7.26-12.07,2.36-24.33,4.81-36.19,7.18-3.65.73-7.29,1.46-10.94,2.19l-9.33,1.86c-17.55,3.5-35.69,7.12-53.53,10.71-11.74,2.36-23.66,4.78-35.2,7.12-23.4,4.75-47.59,9.66-71.42,14.31-37.05,7.23-73.68,14.08-114.3,21.65-15.35,2.86-31,5.54-46.13,8.13-2.55.44-5.1.87-7.65,1.31-3.36.58-6.73,1-10.29,1.46-1.68.21-3.41.43-5.19.68l-.28.04ZM687.1,190.17c-.48,0-.95.05-1.38.17-13.52,3.66-27.23,7.53-40.49,11.27-14.3,4.04-29.08,8.21-43.67,12.13-34.83,9.35-71.08,18.78-107.77,28.04-29.25,7.38-59.06,14.61-87.88,21.6-6.77,1.64-13.54,3.28-20.31,4.93-23.77,5.78-48.62,11.67-68.58,16.4l-8.41,1.99c-28.87,6.84-58.72,13.92-88.12,20.76-12.5,2.91-25.85,5.95-39.48,8.45-11.11,2.04-19.89,6.73-26.83,14.35-4.62,5.07-9.31,10.98-14.34,18.07-4.73,6.67-9.2,13.38-13.92,20.48-1.93,2.91-3.93,5.91-5.96,8.92,1.68-.23,3.33-.44,4.92-.64,3.56-.45,6.93-.88,10.28-1.46,2.55-.44,5.1-.87,7.65-1.31,15.13-2.59,30.78-5.27,46.13-8.13,40.62-7.57,77.25-14.42,114.3-21.65,23.83-4.65,48.02-9.56,71.42-14.31,11.54-2.34,23.46-4.76,35.2-7.12,17.84-3.59,35.98-7.21,53.53-10.71l9.33-1.86c3.65-.73,7.29-1.46,10.94-2.19,11.86-2.37,24.12-4.82,36.19-7.18,12.68-2.48,25.59-4.91,38.08-7.26l2.39-.45c1.62-.31,3.24-.61,4.86-.92,8.09-1.53,16.45-3.11,24.7-4.53,12.18-2.1,25.16-4.24,39.7-6.55,14.26-2.26,28.81-4.5,43.25-6.65,5.98-.89,12.08-1.7,17.98-2.49,2.97-.4,5.94-.79,8.92-1.2,3.27-.45,6.53-.91,9.79-1.36,6.85-.96,13.94-1.96,20.92-2.83,5.4-.68,10.91-1.25,16.23-1.81,2.99-.31,6.07-.64,9.11-.97,3.92-.44,7.85-.89,11.77-1.34,5.98-.68,12.16-1.39,18.25-2.04,5.1-.54,10.24-1.02,15.68-1.53,2.46-.23,4.99-.47,7.63-.72-.49-.41-.9-.76-1.27-1.08-.76-.66-1.31-1.13-1.91-1.52-5.38-3.49-10.86-7.03-16.16-10.45-7.48-4.82-15.21-9.81-22.79-14.75-24.98-16.28-48.79-28.88-72.78-38.52l-.52-.21c-2.15-.87-4.53-1.84-6.59-1.84ZM209.01,231.44c-3.56,0-7.21-.67-10.95-2.02-11.72-4.22-18.31-14.95-17.21-28,.86-10.15,4.45-18.21,10.68-23.96,2.24-2.07,5.76-2.81,9.16-3.52,1.36-.28,2.76-.58,4.05-.95.76-.22,1.6-.16,2.42-.1.37.03.75.05,1.11.05h0c8.87.03,16.87,2.93,22.54,8.16,5.7,5.26,8.83,12.69,8.81,20.93-.03,8.95-4.27,16.69-12.61,23-5.63,4.27-11.65,6.4-17.99,6.4ZM206.03,173.09c-.42,0-.84.03-1.22.15-1.3.38-2.7.67-4.07.95-3.37.7-6.85,1.43-9.04,3.45-6.18,5.71-9.75,13.72-10.6,23.8-1.09,12.93,5.44,23.56,17.05,27.74,10.33,3.72,19.99,2.26,28.71-4.35,8.28-6.27,12.48-13.94,12.51-22.8.05-16.91-12.74-28.77-31.1-28.84-.37,0-.76-.03-1.13-.05-.37-.03-.74-.05-1.11-.05ZM310.07,208.56l-.53-1.42.1-.05c3.02-1.58,6.07-3.24,9.01-4.83,6.71-3.64,13.65-7.4,20.7-10.6,11.88-5.39,22.57-9.56,32.7-12.78,13.74-4.36,27.65-8.07,41.35-11.04,14.62-3.17,29.25-5.31,41.64-6.98,11.51-1.56,23.03-2.26,31.78-2.71,28.29-1.44,56.54-.94,83.96,1.48,1.64.14,3.31.23,4.93.31.76.04,1.52.08,2.29.12l.87.05-.84.2c-86.88,20.12-176.73,40.92-267.85,48.24h-.09ZM309.85,207.25l.39,1.04c90.77-7.31,180.29-27.99,266.87-48.03-.47-.03-.94-.05-1.41-.07-1.62-.08-3.29-.17-4.94-.31-27.42-2.42-55.65-2.92-83.93-1.48-8.74.44-20.25,1.15-31.76,2.71-12.38,1.67-27.01,3.81-41.62,6.98-13.69,2.97-27.6,6.68-41.33,11.03-10.12,3.21-20.81,7.38-32.67,12.77-7.05,3.2-13.98,6.96-20.69,10.59-2.92,1.58-5.93,3.22-8.92,4.79ZM684.46,105.6c-.55,0-1.1-.01-1.65-.03-.44.02-.88.02-1.31.02-10.67,0-21.23-4.47-29.14-12.39-8.46-8.46-13.08-20.01-12.67-31.69.44-12.65,4.42-23.46,11.53-31.26,7.65-8.4,18.69-12.83,31.95-12.83.21,0,.42,0,.63,0,24.61.26,44.75,20.25,44.91,44.56.07,11.05-5.07,22.67-13.76,31.09-8.36,8.1-19.13,12.51-30.49,12.51ZM682.82,105.32h0c.55.02,1.09.03,1.64.03,11.3,0,22.01-4.38,30.32-12.44,8.64-8.38,13.75-19.93,13.68-30.91-.16-24.18-20.19-44.06-44.66-44.31-.22,0-.45,0-.67,0-30.72,0-42.46,22.58-43.2,43.84-.4,11.61,4.19,23.09,12.6,31.5,7.87,7.87,18.36,12.31,28.97,12.31.44,0,.87,0,1.31-.02h0Z"/>
    <path class="cls-2" d="M445.44,1049.76c-3.7,0-7.39-.07-11.05-.23-33.61-1.47-62.41-6.89-88.04-16.57-20.88-7.89-36.63-17.9-48.16-30.62-4.18-4.61-5.76-12.28-6.85-19.88-2.21-15.42,3.26-29.99,16.25-43.3,6.98-7.14,14.72-13.77,22.21-20.18,3.13-2.68,6.37-5.45,9.51-8.22,1.06-.93,2.17-1.78,3.46-2.76.54-.41,1.11-.85,1.72-1.32-2.48.19-4.91.37-7.3.55-5.99.45-11.65.87-17.35,1.36-1.91.16-3.84.41-5.71.65-2.34.3-4.77.61-7.16.76-6.33.39-13.25.68-21.77.91-3.27.09-6.6.2-9.82.3-9.67.31-19.66.63-29.49.52-25.6-.28-46.24-3.49-64.94-10.08-7.27-2.56-15.64-5.69-22.95-10.37-4.27-2.74-7.59-7.13-10.8-11.38-.58-.77-1.16-1.54-1.75-2.3l-1.35-1.75c-6.04-7.81-12.29-15.89-17.63-24.34-10.35-16.37-12.91-30.57-8.03-44.68,2.5-7.25,7.06-14.03,14.33-21.35,19.15-19.28,41.65-36.01,68.79-51.15,17.08-9.53,32.7-17.58,47.76-24.62,11.08-5.18,22.57-9.99,33.68-14.63,6.67-2.79,13.56-5.67,20.3-8.61,47.34-20.63,96.91-36.71,140.65-50.9,49.08-15.92,100.83-30.45,153.81-43.19,43.75-10.52,84.72-18.76,125.25-25.18,4.09-.65,8.26-1.32,12.28-1.98,14.66-2.38,29.81-4.83,44.8-6.55,23.57-2.71,47.05-4.53,69.75-6.29,25.58-1.98,48.31-1.67,69.49.97,21.63,2.69,38.18,8.71,52.06,18.94,3.47,2.56,3.45,5.82,3.43,8.69,0,.66,0,1.28.03,1.89l.07,1.14c1.03,17.94,2.1,36.49,1.69,54.72-.42,18.64-1.43,38.42-8.61,57.33-1.25,3.3-2.84,6.41-4.52,9.7-.76,1.49-1.55,3.03-2.31,4.6l-.07.14-.12-.1c-1.96-1.61-3.82-3.18-5.62-4.69-3.76-3.16-7.31-6.15-10.99-8.92-17.51-13.19-38.31-22.15-63.59-27.4-19.97-4.15-42.12-6.1-67.67-6-24.03.11-48.36.72-72.3,1.83-10.7.5-21.56,1.71-32.05,2.88-3.91.44-7.95.89-11.92,1.29-3.18.33-6.36.64-9.55.96-10.4,1.03-21.16,2.09-31.67,3.56-16.78,2.36-34.55,5.19-54.34,8.67l-5.19.91c-20.06,3.52-40.8,7.17-61.03,11.55-24.23,5.25-48.3,11.48-66.56,16.32-24.69,6.54-46.24,12.68-65.88,18.75-27.82,8.61-49.05,15.68-68.82,22.92-19.5,7.15-38.97,15.39-57.8,23.36l-4.16,1.76c-29.4,12.43-50.97,23.54-69.94,36.02-21.73,14.29-36.26,28.1-47.12,44.75,4,.81,8.03,1.65,11.92,2.46,9.25,1.93,17.99,3.76,26.98,5.31,9.7,1.66,19.63,2.95,29.24,4.2,2.76.36,5.52.71,8.28,1.08,4.43.59,7.99.88,11.21.9,6.83.06,13.77.19,20.49.32,16.96.32,34.49.66,51.68-.17,19.31-.94,38.89-3.31,57.81-5.6,4.32-.52,8.78-1.06,13.17-1.58,7.8-.92,15.67-2.44,23.27-3.92,2.53-.49,5.16-1,7.74-1.48,1.39-.26,2.74-.92,4.04-1.55.26-.13.52-.26.79-.38,32.61-15.53,67.65-29.39,104.13-41.22,47.67-15.45,98.86-27.77,152.14-36.61,28.11-4.67,57.69-9.15,90.43-13.71,14.29-1.99,28.89-3.47,43-4.9,4.3-.44,8.75-.89,13.12-1.34,9.21-.96,17.1-5.1,25.74-10,4.35-2.47,8.75-5.03,13-7.52,8.53-4.98,17.34-10.12,26.25-14.74,7.23-3.75,16.76-7.12,26.35.1l.16.12-.17.09c-25.7,14.04-51.74,26.08-79.61,36.81,1.61.46,3.09.9,4.5,1.31,3.09.9,5.75,1.68,8.45,2.42,4.61,1.26,9.33,2.47,13.9,3.63,10,2.55,20.35,5.2,30.23,8.64,15.63,5.45,25.62,17.46,28.89,34.74.35,1.85.17,3.95-.47,5.49-9.15,22.06-20.85,42.61-34.76,61.09-13.91,18.47-30.43,35.4-49.11,50.32-22.07,17.62-47.54,33.03-77.86,47.11-20.45,9.49-43.22,18.2-69.63,26.61-45.92,14.64-92.38,25.5-131.77,34.2-10.71,2.36-21.92,3.31-32.77,4.22-2.79.24-5.68.48-8.51.74-13.03,1.22-26.26,2.11-39.34,2.65-1.78.07-3.57.15-5.35.23-8.82.38-17.85.77-26.86.77ZM345.29,906.37l-.33.25c-.73.57-1.41,1.08-2.05,1.57-1.29.98-2.4,1.82-3.45,2.75-3.14,2.77-6.38,5.54-9.51,8.23-7.48,6.4-15.22,13.02-22.19,20.16-12.94,13.25-18.39,27.75-16.19,43.09,1.09,7.57,2.66,15.19,6.79,19.75,11.5,12.68,27.22,22.68,48.06,30.55,25.6,9.67,54.37,15.09,87.96,16.55,12.6.55,25.45,0,37.89-.55,1.78-.08,3.57-.16,5.35-.23,13.07-.54,26.3-1.44,39.33-2.65,2.83-.26,5.72-.51,8.52-.74,10.83-.91,22.04-1.86,32.73-4.22,39.39-8.69,85.84-19.55,131.75-34.19,26.4-8.42,49.16-17.12,69.6-26.6,30.31-14.07,55.76-29.46,77.81-47.07,37.32-29.8,65.51-67.25,83.79-111.31.62-1.5.8-3.55.46-5.35-3.25-17.19-13.18-29.13-28.72-34.55-9.87-3.44-20.21-6.08-30.21-8.63-4.56-1.17-9.29-2.37-13.9-3.64-2.7-.74-5.37-1.52-8.46-2.42-1.51-.44-3.12-.91-4.86-1.41l-.36-.1.35-.13c27.93-10.74,54.02-22.78,79.76-36.83-9.38-6.94-18.37-3.88-25.93.04-8.9,4.61-17.71,9.76-26.24,14.73-4.25,2.48-8.65,5.05-13,7.52-8.66,4.91-16.58,9.06-25.83,10.03-4.37.46-8.82.91-13.12,1.35-14.12,1.43-28.71,2.91-43,4.9-32.73,4.56-62.31,9.05-90.42,13.71-53.27,8.84-104.45,21.16-152.11,36.61-36.47,11.82-71.49,25.68-104.1,41.2-.26.12-.52.25-.78.38-1.32.65-2.68,1.31-4.1,1.58-2.58.48-5.2.99-7.73,1.48-7.61,1.48-15.48,3-23.29,3.92-4.39.52-8.85,1.06-13.17,1.58-18.93,2.29-38.51,4.67-57.83,5.6-17.2.83-34.74.5-51.7.17-6.72-.13-13.66-.26-20.49-.32-3.23-.03-6.81-.32-11.24-.91-2.76-.37-5.52-.72-8.28-1.08-9.61-1.25-19.54-2.53-29.25-4.2-9-1.54-17.74-3.37-26.99-5.31-3.95-.83-8.03-1.68-12.09-2.5l-.18-.04.1-.15c10.88-16.75,25.47-30.62,47.29-44.97,18.98-12.49,40.57-23.61,69.98-36.04l4.16-1.76c18.83-7.97,38.31-16.21,57.81-23.36,19.77-7.25,41-14.32,68.83-22.93,19.64-6.08,41.19-12.21,65.89-18.76,18.26-4.84,42.34-11.07,66.57-16.32,20.23-4.38,40.98-8.03,61.04-11.55l5.19-.91c19.79-3.48,37.56-6.32,54.34-8.68,10.52-1.48,21.28-2.54,31.68-3.57,3.18-.31,6.37-.63,9.55-.95,3.97-.41,8.01-.86,11.92-1.29,10.5-1.17,21.36-2.38,32.07-2.88,23.94-1.11,48.27-1.72,72.31-1.83,25.59-.1,47.73,1.85,67.72,6,25.32,5.26,46.15,14.24,63.69,27.45,3.69,2.78,7.24,5.77,11,8.93,1.76,1.48,3.59,3.02,5.5,4.59.74-1.52,1.5-3.01,2.24-4.46,1.68-3.28,3.26-6.38,4.51-9.67,7.16-18.87,8.17-38.63,8.59-57.24.41-18.21-.66-36.76-1.69-54.7l-.07-1.14c-.04-.61-.03-1.24-.03-1.9.02-2.82.04-6.01-3.33-8.49-13.85-10.2-30.35-16.21-51.94-18.89-21.16-2.63-43.88-2.95-69.44-.97-22.7,1.76-46.17,3.58-69.74,6.29-14.98,1.72-30.13,4.17-44.79,6.55-4.03.65-8.19,1.33-12.28,1.98-40.52,6.42-81.49,14.66-125.23,25.17-52.97,12.74-104.71,27.27-153.79,43.19-43.73,14.18-93.3,30.26-140.63,50.89-6.74,2.94-13.63,5.82-20.3,8.61-11.1,4.64-22.59,9.45-33.67,14.63-15.05,7.04-30.67,15.09-47.75,24.62-27.11,15.13-49.6,31.85-68.73,51.1-7.25,7.29-11.78,14.05-14.27,21.26-4.85,14.03-2.3,28.16,8.01,44.46,5.34,8.45,11.58,16.52,17.62,24.33l1.35,1.75c.58.75,1.16,1.52,1.75,2.3,3.19,4.23,6.5,8.61,10.73,11.32,7.29,4.67,15.64,7.79,22.9,10.35,18.68,6.58,39.29,9.78,64.86,10.06,9.82.11,19.82-.21,29.48-.52,3.22-.1,6.55-.21,9.82-.3,8.51-.23,15.43-.52,21.76-.91,2.39-.15,4.81-.46,7.15-.76,1.87-.24,3.81-.49,5.72-.65,5.7-.49,11.36-.91,17.36-1.36,2.52-.19,5.08-.38,7.71-.58l.41-.03ZM452.52,1037.58h0c-4.8-.16-9.9-.32-15.31-.48-13.75-.42-29.34-.89-44.8-1.67-10.39-.52-22.48-1.84-33.37-7.65-7.75-4.14-12.65-10.46-14.55-18.79-.47-2.05.72-4.75,1.51-6.53,8.75-19.8,23.17-36.26,45.39-51.8,37.95-26.54,80.73-43.21,113.75-54.76,33.8-11.83,68.65-20.74,103.56-26.5,14.77-2.44,29.83-4.4,43.11-6.13,29.09-3.79,55.68-5.19,81.3-4.27,22.58.81,48.98,3,73.51,13.19,17.32,7.19,29.32,19.17,35.68,35.62.5,1.29.38,3.68-.54,4.82l-.74.93c-6.94,8.69-14.11,17.68-21.61,26.14-8.67,9.78-19.12,16.35-31.96,20.1-5.9,1.72-11.66,4.31-17.22,6.82-3.35,1.51-6.82,3.07-10.29,4.43-3.98,1.56-8.02,3.17-11.93,4.72-13.2,5.24-26.84,10.67-40.52,15.23-27.66,9.24-50.55,16.22-72.04,21.97-20.19,5.4-41.3,9.38-59.93,12.9-9.65,1.82-19.57,3.13-29.16,4.39-4.55.6-9.25,1.22-13.86,1.89-23.16,3.35-47.08,4.97-80.01,5.44ZM717.84,858.98c-20.91,0-42.64,1.5-65.98,4.54-13.28,1.73-28.34,3.69-43.11,6.12-34.9,5.75-69.73,14.67-103.52,26.49-33.01,11.55-75.77,28.21-113.69,54.73-22.18,15.51-36.57,31.94-45.3,51.7-.77,1.75-1.95,4.41-1.5,6.37,1.89,8.25,6.74,14.52,14.42,18.62,10.85,5.79,22.91,7.1,33.27,7.62,15.45.78,31.04,1.25,44.79,1.67,5.4.16,10.5.32,15.3.48,32.91-.46,56.83-2.09,79.98-5.43,4.61-.67,9.31-1.29,13.86-1.89,9.58-1.26,19.5-2.57,29.14-4.39,18.62-3.51,39.73-7.5,59.91-12.89,21.48-5.75,44.36-12.72,72.02-21.96,13.67-4.57,27.31-9.99,40.51-15.23,3.91-1.55,7.95-3.16,11.93-4.72,3.47-1.36,6.93-2.92,10.28-4.43,5.57-2.51,11.34-5.11,17.25-6.83,12.79-3.73,23.21-10.28,31.84-20.02,7.49-8.45,14.66-17.44,21.6-26.13l.74-.93c.79-.98,1.03-3.21.5-4.58-6.33-16.38-18.29-28.31-35.55-35.47-24.5-10.17-50.86-12.36-73.42-13.17-5.05-.18-10.14-.27-15.27-.27Z"/>
    <path class="cls-2" d="M108.81,639.45c-1.6,0-3.21-.02-4.81-.05-10.12-.22-20.41-1.14-30.35-2.03-4.46-.4-9.08-.82-13.62-1.16h-.11s0-.12,0-.12c-.14-2.92-.28-5.68-.42-8.32-.28-5.57-.55-10.83-.75-15.98-.08-2-.16-4.01-.25-6.01-.3-6.9-.6-14.04-.58-21.07.03-9.28,2.04-17.33,5.97-23.93,4.07-6.83,10.34-12.34,18.63-16.38,5.05-2.46,10.07-5.2,14.92-7.86,6.3-3.44,12.81-7.01,19.45-9.98,16.92-7.57,35-15.5,53.54-21.93,42.52-14.75,80.92-27.93,120.33-39.84,43.15-13.04,88.91-25.9,144-40.49,55.06-14.57,100.51-25.84,143.04-35.47,50.36-11.4,101.87-21.64,151.68-31.55l3.4-.68c23.67-4.71,47.92-8.53,71.38-12.23l5.54-.88c11.82-1.87,23.19-3.06,33.81-3.55,9.17-.42,18.51-.3,27.55-.18,3.7.05,7.52.1,11.28.11,3.15,0,5.28,1.2,6.92,3.85,3.7,6.01,7.6,12.05,11.38,17.89,7.3,11.3,14.84,22.98,21.29,35,7.9,14.74,14.95,30.25,21.77,45.26,2.86,6.28,5.81,12.78,8.79,19.13.36.77.53,1.63.62,2.09.03.13.04.23.06.29l.06.22-.21-.06c-3.9-1.15-7.87-2.4-11.71-3.6-8.54-2.68-17.37-5.45-26.23-7.41-23.89-5.28-48.23-2.99-74.41,6.98-50.45,19.23-91.71,34.23-129.84,47.2-65.52,22.29-137.37,42.85-226.12,64.7-60.19,14.82-124.5,28.69-196.61,42.41-23.3,4.43-46.53,8.37-66.18,11.64-8.96,1.49-18.1,2.84-26.94,4.15-8.32,1.23-16.92,2.5-25.35,3.88-18.12,2.98-39.33,5.96-60.87,5.96ZM60.15,635.96c4.51.34,9.09.75,13.51,1.15,9.94.89,20.22,1.82,30.33,2.03,23.16.49,46.17-2.71,65.64-5.9,8.44-1.39,17.04-2.66,25.36-3.89,8.84-1.31,17.98-2.66,26.94-4.15,19.65-3.27,42.88-7.21,66.18-11.64,72.11-13.72,136.42-27.59,196.6-42.41,88.74-21.85,160.59-42.4,226.1-64.69,38.13-12.97,79.38-27.97,129.83-47.2,26.23-10,50.61-12.28,74.56-6.99,8.88,1.96,17.71,4.74,26.25,7.42,3.77,1.18,7.67,2.41,11.5,3.54,0-.03-.01-.06-.02-.09-.09-.45-.25-1.29-.6-2.04-2.98-6.35-5.93-12.85-8.79-19.13-6.82-15-13.87-30.51-21.76-45.24-6.44-12.01-13.98-23.69-21.28-34.98-3.77-5.84-7.68-11.88-11.38-17.9-1.58-2.57-3.65-3.72-6.71-3.73-3.76-.01-7.58-.06-11.28-.11-9.03-.12-18.37-.24-27.53.18-10.61.49-21.97,1.68-33.78,3.54l-5.54.87c-23.45,3.7-47.7,7.53-71.37,12.23l-3.4.68c-49.81,9.91-101.32,20.15-151.67,31.55-42.53,9.63-87.98,20.9-143.03,35.47-55.09,14.58-100.85,27.45-143.99,40.48-39.4,11.91-77.8,25.09-120.32,39.84-18.53,6.43-36.6,14.35-53.52,21.92-6.64,2.97-13.14,6.53-19.44,9.97-4.86,2.66-9.88,5.4-14.93,7.86-16.4,7.98-24.4,21.09-24.46,40.09-.02,7.02.28,14.15.58,21.05.09,2,.17,4.01.25,6.01.2,5.15.47,10.41.75,15.98.13,2.61.27,5.33.41,8.21ZM129.46,584.34l.95-.32c1.77-.59,3.53-1.19,5.29-1.79,3.78-1.29,7.68-2.62,11.56-3.82,10.93-3.37,22.03-6.84,32.77-10.19,27.18-8.49,55.28-17.27,83.1-25.26,31.22-8.97,62.59-16.66,91.85-23.63,20.09-4.79,40.64-9.1,60.52-13.28,7.21-1.52,14.67-3.08,22-4.65l4.08-.87c13.64-2.92,27.75-5.94,41.69-8.58,9.21-1.75,18.61-3.3,27.7-4.79,4.8-.79,9.77-1.61,14.65-2.45,5.49-.94,11.06-1.92,16.45-2.87,9.17-1.61,18.64-3.28,27.98-4.81,6.14-1,12.41-1.89,18.47-2.74,4.28-.6,8.7-1.22,13.05-1.89,3.88-.59,7.82-1.25,11.63-1.88,4.95-.82,10.06-1.67,15.11-2.39,6.25-.89,12.62-1.66,18.78-2.41,3.12-.38,6.34-.77,9.51-1.17,4.61-.58,9.22-1.18,13.83-1.77,8.51-1.1,17.3-2.23,25.96-3.28,4.98-.6,10.05-1.14,14.95-1.66,3.72-.39,7.56-.8,11.34-1.23,4.17-.48,8.41-1,12.5-1.5,5.17-.63,10.51-1.28,15.77-1.86,3.95-.44,7.97-.79,11.86-1.13,2.75-.24,5.59-.49,8.38-.77,4.64-.46,9.35-.95,13.9-1.42,6.44-.67,13.09-1.35,19.64-1.98,6.05-.58,12.21-1.05,18.17-1.51,1.31-.1,2.63-.2,3.94-.3,7.15-.56,14.42-1.1,21.46-1.63,3.09-.23,6.18-.46,9.27-.7l1.19-.09-1.15.33c-128.05,37.42-245.75,66.63-359.82,89.32-61.78,12.29-123.21,22.74-182.57,31.05-62.27,8.72-124.43,15.4-184.77,19.85l-1,.07ZM856.4,444.15c-2.69.2-5.38.41-8.08.61-7.03.53-14.3,1.08-21.46,1.63-1.31.1-2.63.2-3.94.3-5.96.46-12.12.93-18.17,1.51-6.55.62-13.2,1.31-19.64,1.98-4.56.47-9.27.96-13.9,1.42-2.79.28-5.64.53-8.39.77-3.89.34-7.91.7-11.86,1.13-5.26.58-10.6,1.23-15.76,1.86-4.1.5-8.33,1.02-12.51,1.5-3.78.43-7.63.84-11.35,1.23-4.9.52-9.97,1.05-14.95,1.66-8.66,1.05-17.45,2.19-25.96,3.28-4.61.59-9.22,1.19-13.83,1.77-3.17.4-6.39.79-9.51,1.17-6.16.75-12.53,1.52-18.77,2.41-5.04.72-10.16,1.57-15.1,2.39-3.81.63-7.75,1.29-11.64,1.88-4.34.66-8.77,1.28-13.05,1.89-6.06.85-12.32,1.73-18.46,2.74-9.34,1.53-18.81,3.19-27.98,4.81-5.39.95-10.97,1.93-16.45,2.87-4.88.84-9.84,1.66-14.65,2.45-9.09,1.5-18.49,3.05-27.7,4.79-13.93,2.65-28.04,5.66-41.68,8.58l-4.08.87c-7.33,1.57-14.79,3.13-22,4.65-19.88,4.17-40.43,8.49-60.51,13.28-29.25,6.97-60.63,14.66-91.84,23.62-27.82,7.99-55.92,16.77-83.1,25.26-10.74,3.35-21.84,6.82-32.77,10.19-3.87,1.19-7.78,2.53-11.55,3.81-1.45.49-2.9.99-4.35,1.48,221.94-16.45,459.08-62.18,724.96-139.8Z"/>
    <path class="cls-2" d="M119.44,378.06l.16-.23c2.08-3.09,4.13-6.17,6.11-9.15,4.73-7.1,9.19-13.81,13.92-20.49,5.04-7.1,9.74-13.02,14.36-18.1,6.98-7.66,15.81-12.38,26.97-14.43,13.63-2.5,26.97-5.54,39.47-8.45,29.39-6.83,59.25-13.91,88.12-20.76l8.41-1.99c19.96-4.73,44.81-10.62,68.58-16.4,6.77-1.65,13.54-3.29,20.31-4.93,28.83-6.99,58.63-14.22,87.88-21.6,36.68-9.26,72.94-18.69,107.76-28.04,14.59-3.92,29.37-8.09,43.67-12.13,13.26-3.74,26.97-7.62,40.49-11.27,2.4-.65,5.45.58,8.13,1.67l.52.21c24,9.65,47.82,22.26,72.82,38.55,7.58,4.94,15.31,9.93,22.79,14.75,5.3,3.42,10.78,6.96,16.16,10.45.62.4,1.17.88,1.94,1.54.42.37.91.78,1.5,1.27l.23.19-.3.03c-2.75.26-5.38.51-7.93.75-5.44.51-10.58.99-15.68,1.53-6.09.65-12.27,1.36-18.25,2.04-3.92.45-7.85.9-11.77,1.33-3.03.34-6.12.66-9.11.97-5.32.56-10.83,1.13-16.23,1.81-6.98.88-14.07,1.87-20.92,2.83-3.26.46-6.53.92-9.8,1.36-2.97.41-5.94.8-8.92,1.2-5.9.79-11.99,1.6-17.97,2.49-14.44,2.15-28.99,4.38-43.25,6.65-14.54,2.31-27.52,4.45-39.69,6.55-8.25,1.42-16.61,3-24.7,4.53-1.62.31-3.24.61-4.86.92l-2.39.45c-12.49,2.35-25.4,4.78-38.08,7.26-12.07,2.36-24.33,4.81-36.19,7.18-3.65.73-7.29,1.46-10.94,2.19l-9.33,1.86c-17.55,3.5-35.69,7.12-53.53,10.71-11.74,2.36-23.66,4.78-35.2,7.12-23.4,4.75-47.59,9.66-71.42,14.31-37.05,7.23-73.68,14.08-114.3,21.65-15.35,2.86-31,5.54-46.13,8.13-2.55.44-5.1.87-7.65,1.31-3.36.58-6.73,1-10.29,1.46-1.68.21-3.41.43-5.19.68l-.28.04ZM687.1,190.17c-.48,0-.95.05-1.38.17-13.52,3.66-27.23,7.53-40.49,11.27-14.3,4.04-29.08,8.21-43.67,12.13-34.83,9.35-71.08,18.78-107.77,28.04-29.25,7.38-59.06,14.61-87.88,21.6-6.77,1.64-13.54,3.28-20.31,4.93-23.77,5.78-48.62,11.67-68.58,16.4l-8.41,1.99c-28.87,6.84-58.72,13.92-88.12,20.75-12.5,2.91-25.85,5.95-39.48,8.45-11.11,2.04-19.89,6.73-26.83,14.35-4.62,5.07-9.31,10.98-14.34,18.07-4.73,6.67-9.2,13.38-13.92,20.48-1.93,2.91-3.93,5.91-5.95,8.92,1.68-.23,3.33-.44,4.92-.64,3.56-.45,6.93-.88,10.28-1.46,2.55-.44,5.1-.87,7.65-1.31,15.13-2.59,30.78-5.27,46.13-8.13,40.62-7.57,77.25-14.42,114.3-21.65,23.83-4.65,48.02-9.56,71.42-14.31,11.54-2.34,23.46-4.76,35.2-7.12,17.84-3.59,35.98-7.21,53.53-10.71l9.33-1.86c3.65-.73,7.29-1.46,10.94-2.19,11.86-2.37,24.12-4.82,36.19-7.18,12.68-2.48,25.59-4.91,38.08-7.26l2.39-.45c1.62-.31,3.24-.61,4.86-.92,8.09-1.53,16.45-3.11,24.7-4.53,12.18-2.1,25.16-4.24,39.7-6.55,14.26-2.26,28.81-4.5,43.25-6.65,5.98-.89,12.08-1.7,17.98-2.49,2.97-.4,5.94-.79,8.92-1.2,3.27-.45,6.53-.91,9.79-1.36,6.85-.96,13.94-1.96,20.92-2.83,5.4-.68,10.91-1.25,16.23-1.81,2.99-.31,6.07-.64,9.11-.97,3.92-.44,7.85-.89,11.77-1.34,5.98-.68,12.16-1.39,18.25-2.04,5.1-.54,10.24-1.02,15.68-1.53,2.46-.23,4.99-.47,7.63-.72-.49-.41-.9-.76-1.27-1.08-.76-.66-1.31-1.13-1.91-1.52-5.38-3.49-10.86-7.03-16.16-10.45-7.48-4.82-15.21-9.81-22.79-14.75-24.98-16.28-48.79-28.88-72.78-38.52l-.52-.21c-2.15-.87-4.53-1.84-6.59-1.84Z"/>
    <path class="cls-2" d="M61.53,500.62c-1.1,0-2.2-.05-3.29-.17-11.34-1.16-21.77-5.73-29.39-12.89-8.68-8.15-13.22-19.19-13.13-31.93h0c.46-13.36,5.04-24.51,13.23-32.25,7.84-7.4,18.73-11.54,31.49-11.96,11.02-.36,22.17,4.09,30.62,12.21,8.61,8.28,13.58,19.27,13.97,30.94.43,12.65-4.7,24.61-14.43,33.7-8.42,7.87-19.07,12.35-29.08,12.35ZM15.97,455.64c-.18,27.79,21.11,42.41,42.3,44.57,10.84,1.11,22.87-3.42,32.17-12.11,9.67-9.04,14.77-20.94,14.35-33.51-.79-23.57-20.35-42.93-43.02-42.93-.44,0-.87,0-1.31.02-26.53.87-43.57,17.72-44.48,43.97h0Z"/>
    <path class="cls-2" d="M684.46,105.6c-.55,0-1.1-.01-1.65-.03-.44.02-.88.02-1.31.02-10.67,0-21.23-4.47-29.14-12.39-8.46-8.46-13.08-20.01-12.67-31.69.44-12.65,4.42-23.46,11.53-31.26,7.65-8.4,18.69-12.83,31.95-12.83.21,0,.42,0,.63,0,24.61.26,44.75,20.25,44.91,44.56.07,11.05-5.07,22.67-13.76,31.09-8.36,8.1-19.13,12.51-30.49,12.51ZM682.82,105.32h0c11.91.45,23.25-3.96,31.96-12.4,8.64-8.38,13.75-19.93,13.68-30.91-.16-24.18-20.19-44.06-44.66-44.31-.22,0-.45,0-.67,0-30.72,0-42.46,22.58-43.2,43.84-.4,11.61,4.19,23.09,12.6,31.5,7.87,7.87,18.36,12.31,28.97,12.31.44,0,.87,0,1.31-.02h0Z"/>
    <path class="cls-2" d="M310.07,208.56l-.53-1.42.1-.05c3.02-1.58,6.07-3.24,9.01-4.83,6.71-3.64,13.65-7.4,20.7-10.6,11.88-5.39,22.57-9.56,32.7-12.78,13.74-4.36,27.65-8.07,41.35-11.04,14.62-3.17,29.25-5.31,41.64-6.98,11.51-1.56,23.03-2.26,31.78-2.71,28.29-1.44,56.54-.94,83.96,1.48,1.64.14,3.31.23,4.93.31.76.04,1.52.08,2.29.12l.87.05-.84.2c-86.88,20.12-176.73,40.92-267.85,48.24h-.09ZM309.85,207.25l.39,1.04c90.77-7.31,180.29-27.99,266.87-48.03-.47-.03-.94-.05-1.41-.07-1.62-.08-3.29-.17-4.94-.31-27.42-2.42-55.65-2.92-83.93-1.48-8.74.44-20.25,1.15-31.76,2.71-12.38,1.67-27.01,3.81-41.62,6.98-13.69,2.97-27.6,6.68-41.33,11.03-10.12,3.21-20.81,7.38-32.67,12.77-7.05,3.2-13.98,6.96-20.69,10.59-2.92,1.58-5.93,3.22-8.92,4.79Z"/>
    <path class="cls-2" d="M209.01,231.44c-3.56,0-7.21-.67-10.95-2.02-11.72-4.22-18.31-14.95-17.21-28,.86-10.15,4.45-18.21,10.68-23.96,2.24-2.07,5.76-2.81,9.16-3.52,1.36-.28,2.76-.58,4.05-.95.76-.22,1.6-.16,2.42-.1.37.03.75.05,1.11.05h0c8.87.03,16.87,2.93,22.54,8.16,5.7,5.26,8.83,12.69,8.81,20.93-.03,8.95-4.27,16.69-12.61,23-5.63,4.27-11.65,6.4-17.99,6.4ZM206.03,173.09c-.42,0-.84.04-1.22.15-1.3.38-2.7.67-4.07.95-3.37.7-6.85,1.43-9.04,3.45-6.18,5.71-9.75,13.72-10.6,23.8-1.09,12.93,5.44,23.56,17.05,27.74,10.33,3.72,19.99,2.26,28.71-4.35,8.28-6.27,12.48-13.94,12.51-22.8.05-16.91-12.74-28.77-31.1-28.84h0c-.37,0-.76-.03-1.13-.05-.37-.03-.74-.05-1.11-.05Z"/>
    <path class="cls-2" d="M54.46,740.67c-8.65,0-15.89-3.63-21.55-10.81-4.12-5.22-5.43-11.62-3.61-17.54,1.88-6.11,6.79-10.82,13.47-12.93,7.23-2.29,14.37-1.37,19.58,2.51,5.3,3.94,8.15,10.45,8.02,18.31.1,6.08-2.62,12.28-7.88,17.92-1.18,1.27-3.39,2.27-5.36,2.43-.91.08-1.81.11-2.69.11ZM50.49,698.4c-2.48,0-5.06.4-7.65,1.22-6.6,2.09-11.45,6.74-13.31,12.77-1.8,5.84-.5,12.15,3.57,17.31,6.18,7.84,14.26,11.42,24.02,10.6,1.91-.16,4.05-1.13,5.2-2.35,5.21-5.59,7.91-11.72,7.81-17.74h0c.12-7.78-2.69-14.21-7.92-18.11-3.28-2.45-7.34-3.7-11.71-3.7Z"/>
    <path class="cls-2" d="M452.52,1037.58h0c-4.8-.16-9.9-.32-15.31-.48-13.75-.42-29.34-.89-44.8-1.67-10.39-.52-22.48-1.84-33.37-7.65-7.75-4.14-12.65-10.46-14.55-18.78-.47-2.05.72-4.75,1.51-6.53,8.75-19.8,23.17-36.26,45.39-51.8,37.95-26.54,80.73-43.21,113.75-54.76,33.8-11.83,68.65-20.74,103.56-26.5,14.77-2.44,29.83-4.4,43.11-6.13,29.09-3.79,55.69-5.19,81.3-4.27,22.58.81,48.98,3,73.51,13.19,17.32,7.19,29.32,19.17,35.68,35.62.5,1.29.38,3.68-.54,4.82l-.74.93c-6.94,8.69-14.11,17.68-21.61,26.14-8.67,9.78-19.12,16.35-31.96,20.1-5.9,1.72-11.66,4.31-17.22,6.82-3.35,1.51-6.82,3.07-10.29,4.43-3.98,1.56-8.02,3.17-11.93,4.72-13.2,5.24-26.84,10.67-40.52,15.23-27.66,9.24-50.55,16.22-72.04,21.97-20.19,5.4-41.3,9.38-59.93,12.9-9.65,1.82-19.57,3.13-29.16,4.39-4.55.6-9.25,1.22-13.86,1.89-23.16,3.35-47.08,4.97-80.01,5.44ZM717.84,858.98c-20.91,0-42.64,1.5-65.98,4.54-13.28,1.73-28.34,3.69-43.11,6.12-34.9,5.75-69.73,14.67-103.52,26.49-33.01,11.55-75.77,28.21-113.69,54.73-22.18,15.51-36.57,31.94-45.3,51.7-.77,1.75-1.95,4.41-1.5,6.37,1.89,8.25,6.74,14.52,14.42,18.62,10.85,5.79,22.91,7.1,33.27,7.62,15.45.78,31.04,1.25,44.79,1.67,5.4.16,10.51.32,15.3.48,32.91-.46,56.83-2.09,79.97-5.43,4.61-.67,9.31-1.29,13.86-1.89,9.58-1.26,19.5-2.57,29.14-4.39,18.62-3.51,39.73-7.5,59.91-12.89,21.48-5.75,44.36-12.72,72.02-21.96,13.67-4.57,27.31-9.99,40.51-15.23,3.91-1.55,7.95-3.16,11.93-4.72,3.47-1.36,6.93-2.92,10.28-4.43,5.57-2.51,11.34-5.11,17.25-6.83,12.79-3.73,23.21-10.28,31.84-20.02,7.49-8.45,14.66-17.44,21.6-26.13l.74-.93c.79-.98,1.03-3.21.5-4.58-6.33-16.38-18.29-28.31-35.55-35.47-24.5-10.17-50.86-12.36-73.42-13.17-5.05-.18-10.14-.27-15.27-.27Z"/>
    <path class="cls-2" d="M129.46,584.34l.95-.32c1.77-.59,3.53-1.19,5.29-1.79,3.78-1.29,7.68-2.62,11.56-3.82,10.93-3.37,22.03-6.84,32.77-10.19,27.18-8.49,55.28-17.27,83.1-25.26,31.22-8.97,62.59-16.66,91.85-23.63,20.09-4.79,40.64-9.1,60.52-13.28,7.21-1.52,14.67-3.08,22-4.65l4.08-.87c13.64-2.92,27.75-5.94,41.69-8.58,9.21-1.75,18.61-3.3,27.7-4.79,4.8-.79,9.77-1.61,14.65-2.45,5.49-.94,11.06-1.92,16.45-2.87,9.17-1.61,18.64-3.28,27.98-4.81,6.14-1,12.41-1.89,18.47-2.74,4.28-.6,8.7-1.22,13.05-1.89,3.88-.59,7.82-1.25,11.63-1.88,4.95-.82,10.06-1.67,15.11-2.39,6.25-.89,12.62-1.66,18.78-2.41,3.12-.38,6.34-.77,9.51-1.17,4.61-.58,9.22-1.18,13.83-1.77,8.51-1.1,17.3-2.23,25.96-3.28,4.98-.6,10.05-1.14,14.95-1.66,3.72-.39,7.56-.8,11.34-1.23,4.17-.48,8.41-1,12.5-1.5,5.17-.63,10.51-1.28,15.77-1.86,3.95-.44,7.97-.79,11.86-1.14,2.75-.24,5.59-.49,8.38-.77,4.64-.46,9.35-.95,13.9-1.42,6.44-.66,13.09-1.35,19.64-1.98,6.05-.58,12.21-1.05,18.17-1.51,1.31-.1,2.63-.2,3.94-.3,7.15-.56,14.42-1.1,21.46-1.63,3.09-.23,6.18-.46,9.27-.7l1.19-.09-1.15.33c-128.05,37.42-245.75,66.63-359.82,89.32-61.78,12.29-123.21,22.74-182.57,31.05-62.27,8.72-124.43,15.4-184.77,19.85l-1,.07ZM856.4,444.15c-2.69.2-5.38.41-8.08.61-7.03.53-14.3,1.08-21.46,1.63-1.31.1-2.63.2-3.94.3-5.96.46-12.12.93-18.17,1.51-6.55.62-13.2,1.31-19.64,1.98-4.56.47-9.27.96-13.9,1.42-2.79.28-5.64.53-8.39.77-3.89.34-7.91.7-11.86,1.13-5.26.58-10.6,1.23-15.76,1.86-4.1.5-8.33,1.02-12.51,1.5-3.78.43-7.63.84-11.35,1.23-4.9.52-9.97,1.05-14.95,1.66-8.66,1.05-17.45,2.19-25.96,3.28-4.61.59-9.22,1.19-13.83,1.77-3.17.4-6.39.79-9.51,1.17-6.16.75-12.53,1.52-18.77,2.41-5.04.72-10.16,1.57-15.1,2.39-3.81.63-7.75,1.29-11.64,1.88-4.34.66-8.77,1.28-13.05,1.89-6.06.85-12.32,1.73-18.46,2.74-9.34,1.53-18.81,3.19-27.98,4.81-5.39.95-10.97,1.93-16.45,2.87-4.88.84-9.84,1.66-14.65,2.45-9.09,1.5-18.49,3.05-27.7,4.79-13.93,2.65-28.04,5.66-41.68,8.58l-4.08.87c-7.33,1.57-14.79,3.13-22,4.65-19.88,4.17-40.43,8.49-60.51,13.28-29.25,6.97-60.63,14.66-91.84,23.62-27.82,7.99-55.92,16.77-83.1,25.26-10.74,3.35-21.84,6.82-32.77,10.19-3.87,1.19-7.78,2.53-11.55,3.81-1.45.49-2.9.99-4.35,1.48,221.94-16.45,459.08-62.18,724.96-139.8Z"/>
  </g>
</svg>