<svg width="82" height="70" viewBox="0 0 82 70" fill="none" xmlns="http://www.w3.org/2000/svg">
<g clip-path="url(#clip0_207_79)">
<rect width="82" height="70" />
<path fill-rule="evenodd" clip-rule="evenodd" d="M59.6417 0L37.3503 23.0564H18.2221L0 41.8815L22.4382 41.8832V65L44.8283 41.8752H63.7908L82 23.0564H59.6417V0ZM55.0623 11.4479V23.0706H43.8097L55.0623 11.4479ZM58.4822 27.8095H70.9363L61.9176 37.1311H49.4695L58.4822 27.8095ZM39.2192 27.8095H52.0022L42.9869 37.1311H30.2073L39.2192 27.8095ZM20.0772 27.8095H32.7151L23.6964 37.1311H11.0645L20.0772 27.8095ZM26.9824 41.8744H38.3681L26.9824 53.6621V41.8744Z" fill="#1D1D1B"/>
<path fill-rule="evenodd" clip-rule="evenodd" d="M73.2371 61.8454H72.3409V58.1232H73.2371C74.5955 58.1232 76.1132 58.2643 76.1132 59.9251C76.1132 61.6459 74.5767 61.8454 73.2371 61.8454ZM76.1508 62.9328V62.8936C77.8816 62.6566 78.9525 61.3113 78.9525 59.6872C78.9525 55.8482 75.4695 55.9458 72.5532 55.9458H69.6172V69.7622H72.3409V64.0237H73.2149C74.361 64.0237 74.7102 64.4184 75.1014 65.4457L76.7346 69.7622H79.7673L77.5915 64.3574C77.3184 63.7449 76.8904 62.9929 76.1508 62.9328Z" fill="#1D1D1B"/>
<path fill-rule="evenodd" clip-rule="evenodd" d="M48.9929 67.5848H47.4787V58.1232H48.9929C51.2673 58.1232 53.4654 59.8467 53.4654 62.8544C53.4654 65.8631 51.2673 67.5848 48.9929 67.5848ZM48.4691 55.9458H44.7559V69.7622H48.4691C52.6283 69.7622 56.3038 68.3367 56.3038 62.8544C56.3038 57.3739 52.6283 55.9458 48.4691 55.9458Z" fill="#1D1D1B"/>
<path fill-rule="evenodd" clip-rule="evenodd" d="M61.9102 55.9458H59.1865V69.7622H67.1779V67.5848H61.9102V55.9458Z" fill="#1D1D1B"/>
</g>
<defs>
<clipPath id="clip0_207_79">
<rect width="82" height="70" />
</clipPath>
</defs>
</svg>
